<svg width="92" height="38" viewBox="0 0 92 38" fill="none" xmlns="http://www.w3.org/2000/svg">
<path d="M17.9515 6.59317C17.9194 6.45207 17.8915 6.33378 17.8755 6.24338C17.851 6.10988 17.8307 5.78544 17.8066 5.40946C17.7297 4.19406 17.614 2.35724 17.1387 1.4853C16.5655 0.433392 15.9812 -0.19226 14.8178 0.0531846C14.5516 0.108948 14.163 0.098387 13.7857 0.075997C13.602 0.0654357 13.419 0.0544521 13.242 0.0544521C12.7803 0.0544521 12.2024 0.122044 11.831 0.647997C11.7035 0.828384 11.6114 1.00117 11.5324 1.1693C11.3494 1.07045 11.1099 1.00075 10.8015 0.968216C10.5734 0.944137 10.3905 0.933153 10.2261 0.933153C9.54515 0.933153 9.09144 1.13044 8.4924 1.68681C8.27579 1.88923 8.11278 2.14223 8.01798 2.42314C7.50259 1.88367 6.7633 1.44516 5.94797 1.58204C5.05913 1.73032 4.64724 2.41765 4.31688 2.97022C4.26746 3.0526 4.21972 3.13286 4.17156 3.20806C3.93836 3.57475 3.88471 4.27644 3.91513 5.01362C3.65863 4.91918 3.38525 4.87933 3.11247 4.8966C2.47541 4.9342 2.1628 5.18471 1.90341 5.51253C1.86349 5.51504 1.8251 5.52879 1.79265 5.55218C1.76021 5.57558 1.73505 5.60768 1.72007 5.64476C1.71289 5.66335 1.67867 5.75418 1.62924 5.88978C1.58066 5.95949 1.5325 6.02919 1.47631 6.10397C1.32677 6.30294 1.26931 6.60246 1.26509 6.9438C0.953318 7.89897 0.589164 9.16801 0.549876 9.99687C0.521149 10.6005 0.429055 11.6461 0.331046 12.7534C0.196706 14.2772 0.0442011 16.0046 0.00491304 17.1439C-0.0398669 18.4438 0.230502 19.9824 0.448065 21.2189C0.563395 21.8741 0.662671 22.4398 0.686328 22.812C0.715055 23.2695 0.640703 24.4266 0.56255 25.6521C0.456514 27.3123 0.335693 29.1939 0.414269 30.0971C0.4299 30.2746 0.443419 30.4668 0.457782 30.6704C0.570577 32.2521 0.740825 34.6423 2.22828 36.5028C2.5447 36.8982 3.07276 37.1069 3.75586 37.1069C5.51665 37.1069 8.15951 35.7479 9.90297 33.9461C10.7935 33.0256 11.8433 31.5888 11.7901 29.9675C11.7406 28.461 11.6384 27.295 11.5556 26.3584C11.4297 24.9259 11.3537 24.0616 11.5962 23.411C11.6097 23.3663 11.6313 23.3245 11.6599 23.2876C11.7782 23.1693 11.9257 23.0937 12.1115 22.9978C12.7921 22.648 13.8204 22.1187 15.4548 18.7323C15.612 18.4632 15.7793 18.1967 15.944 17.9335C16.5456 16.9732 17.1142 16.0658 17.1142 15.212C17.1142 14.8572 17.0618 14.2949 16.9875 13.6384C17.1539 13.1534 17.8172 11.1996 18.1281 9.95589C18.4386 8.71303 18.1218 7.33415 17.9515 6.59317ZM17.7175 9.85323C17.5092 10.688 17.1387 11.8493 16.8705 12.66L16.8265 12.3013C16.7133 11.3859 16.5967 10.4388 16.5519 9.78775C16.4839 8.80133 16.0733 8.09414 15.5389 7.50144C15.9073 7.49384 16.3378 7.48201 16.7594 7.46215C16.8125 7.45698 16.8618 7.43189 16.8972 7.39192C16.9327 7.35194 16.9517 7.30004 16.9505 7.24663C16.9492 7.19321 16.9279 7.14224 16.8906 7.10394C16.8534 7.06564 16.803 7.04284 16.7496 7.04012C16.7074 7.04012 16.579 7.04012 16.4366 6.82298C16.0268 6.19817 15.9985 4.54343 16.3821 3.66135C16.3998 3.62163 16.4047 3.57742 16.3962 3.53479C16.3877 3.49217 16.3662 3.45322 16.3346 3.42331C16.3031 3.39339 16.2631 3.37398 16.2201 3.36774C16.1771 3.3615 16.1332 3.36873 16.0944 3.38845L15.895 3.48983C15.6107 3.63558 15.6107 3.63558 15.2187 3.65712L14.9508 3.67276C14.9161 3.67491 14.8825 3.68565 14.8529 3.70401C14.8233 3.72236 14.7988 3.74777 14.7814 3.77795C14.4938 4.27475 14.0734 4.58018 13.7562 4.75719C13.5517 4.38416 13.3269 4.04325 13.1111 3.82484C13.1542 3.50462 13.1656 2.86165 12.6409 2.57522C12.5435 2.52348 12.4396 2.48498 12.3321 2.46074C12.2598 2.44321 12.1862 2.4319 12.112 2.42694C12.0429 2.42414 11.9736 2.42682 11.905 2.43497C11.771 2.4453 11.639 2.47343 11.5125 2.51862C11.559 2.38512 11.6008 2.25036 11.6409 2.11222C11.6583 2.05307 11.6768 1.99266 11.695 1.93267C11.7153 1.86508 11.7385 1.79707 11.7618 1.72821C11.7901 1.64456 11.8217 1.56007 11.8581 1.47347C11.9371 1.28632 12.0351 1.09453 12.1774 0.892597C12.3853 0.598148 12.6945 0.477749 13.2433 0.477749C13.4123 0.477749 13.5867 0.48831 13.7625 0.498449C14.1782 0.522951 14.5994 0.531823 14.9065 0.467188C15.7408 0.291025 16.1502 0.552946 16.7691 1.68807C17.2 2.47806 17.317 4.33009 17.3867 5.43692C17.4133 5.85768 17.4323 6.16184 17.4615 6.31984C17.4788 6.41489 17.5071 6.53952 17.5413 6.68822C17.7023 7.39414 18.0043 8.70881 17.7175 9.85323ZM15.5854 17.7092C15.4291 17.958 15.2728 18.211 15.1224 18.4653L15.1148 18.4565C15.1012 18.4848 15.0919 18.5101 15.0784 18.5389C13.5027 21.8069 12.5488 22.297 11.9176 22.6218C11.7157 22.7254 11.5256 22.8234 11.3592 22.9898C11.2949 23.0549 11.2426 23.1448 11.1986 23.2636C10.9236 24.0028 11.0026 24.9031 11.134 26.3943C11.2159 27.3263 11.3182 28.4855 11.3668 29.9805C11.4153 31.4536 10.4319 32.7899 9.59838 33.6512C7.92547 35.3799 5.41315 36.6836 3.7546 36.6836C3.19654 36.6836 2.79352 36.5336 2.55695 36.2379C1.15187 34.4805 0.993451 32.2605 0.878121 30.6396C0.863336 30.4334 0.849817 30.2395 0.834186 30.06C0.758145 29.188 0.877699 27.3229 0.983312 25.6779C1.06611 24.3852 1.13751 23.269 1.10709 22.7845C1.08217 22.3887 0.980777 21.8124 0.863336 21.1445C0.649575 19.9275 0.383008 18.413 0.426098 17.1574C0.465386 16.0295 0.617046 14.308 0.750963 12.7897C0.848972 11.6782 0.941489 10.628 0.971061 10.0163C0.99683 9.48147 1.17299 8.73078 1.37957 8.01007C1.56418 8.93609 1.90046 9.81183 1.90679 9.82746C2.0838 10.2837 2.27897 10.8401 2.46739 11.3787C2.65664 11.919 2.83492 12.4298 2.97898 12.7893C3.16274 13.2476 3.47705 13.7043 3.85725 13.9654C3.94301 14.2526 4.04567 14.5057 4.15888 14.6046C4.29027 14.719 4.4753 14.8513 4.74271 14.8513C4.91719 14.8513 5.10433 14.7963 5.31556 14.6831C5.78828 14.4297 5.8225 14.0009 5.70252 13.5273C5.74815 13.5624 5.7942 13.597 5.84743 13.6194C6.00542 13.6874 6.1499 13.7381 6.28931 13.7812C6.31593 13.883 6.34212 13.9759 6.36831 14.0537C6.50561 14.4647 6.88032 14.7102 7.37121 14.7102C7.57103 14.7102 7.7793 14.6688 7.97405 14.591C8.46832 14.3933 8.62463 13.807 8.60773 13.352C8.69982 13.3545 8.78811 13.3558 8.865 13.3558C9.47798 13.3558 9.77158 12.6718 9.82946 12.1928C10.0854 11.9429 10.2847 11.6409 10.4137 11.3073C10.5882 10.8587 10.6047 10.4861 10.6207 10.1257C10.6397 9.69692 10.6575 9.29222 10.9194 8.71599C11.0199 8.49463 11.1196 8.29354 11.2168 8.09963C11.2764 8.4452 11.3837 8.78274 11.5662 9.09282C12.3967 10.5047 12.3802 10.5798 12.2708 11.0678C12.2497 11.162 12.226 11.2693 12.2032 11.3986C12.1762 11.5519 12.1128 11.7695 12.0393 12.0221C11.837 12.7175 11.5602 13.6701 11.5847 14.7093C11.5866 14.7652 11.6103 14.818 11.6508 14.8566C11.6912 14.8951 11.7452 14.9163 11.801 14.9155C11.8505 14.9136 11.8977 14.8941 11.9341 14.8606C11.9574 14.8408 11.976 14.8161 11.9886 14.7882C12.0013 14.7604 12.0076 14.7302 12.0072 14.6996C11.984 13.7254 12.2505 12.8091 12.4449 12.14C12.5217 11.8759 12.5881 11.6478 12.6189 11.4721C12.6405 11.35 12.6628 11.249 12.6831 11.1603C12.8246 10.5258 12.7887 10.3386 11.9299 8.87906C11.6794 8.45322 11.5877 7.95896 11.586 7.46131C11.5856 7.42836 11.5873 7.39583 11.5877 7.36288C11.5885 7.32021 11.5881 7.27796 11.5902 7.23529C11.594 7.16137 11.6004 7.08828 11.6076 7.01477C11.6173 6.91043 11.63 6.80777 11.6456 6.70554C11.6982 6.36999 11.7759 6.03885 11.8779 5.71489L11.8914 5.67053C11.9045 5.62871 11.9176 5.58604 11.9307 5.54633C11.973 5.64054 12.0207 5.73855 12.0744 5.83994C12.1099 5.90753 12.1475 5.97597 12.1872 6.04609C12.2619 6.1779 12.3418 6.31435 12.4263 6.45503L12.4689 6.52642C12.5361 6.63837 12.5957 6.73849 12.6312 6.80989C12.6544 6.85551 12.6827 6.90071 12.7148 6.94423C12.8154 7.08026 12.9564 7.20319 13.1161 7.29951C13.2091 7.35527 13.3079 7.40047 13.4081 7.43512C13.5361 7.4799 13.6662 7.50693 13.7891 7.50693C13.8643 7.50693 13.9353 7.49764 14.0003 7.47905C14.1081 7.44821 14.1866 7.38358 14.2508 7.30542C14.2969 7.24924 14.3366 7.18756 14.3649 7.11828C14.3801 7.0811 14.3907 7.04181 14.4012 7.00337C14.5157 7.10138 14.6268 7.20108 14.7367 7.30078C14.8123 7.36963 14.8858 7.43976 14.9572 7.51031C15.5761 8.11569 16.0598 8.79837 16.1299 9.8169C16.1755 10.4793 16.2934 11.4319 16.4066 12.3529C16.4489 12.6951 16.4911 13.0385 16.53 13.3697L16.5595 13.6253L16.5857 13.8623C16.6474 14.4233 16.6905 14.9096 16.6905 15.2116C16.6905 15.6577 16.4898 16.1507 16.206 16.6725C16.0681 16.9217 15.9236 17.1673 15.7725 17.4088L15.5854 17.7092ZM2.42134 5.57337C2.59032 5.42551 2.79521 5.33848 3.13613 5.31821C3.41423 5.30092 3.69203 5.35639 3.94217 5.47916C3.96228 5.72362 3.98918 5.96747 4.02285 6.21043C4.05919 6.47615 4.10016 6.72328 4.1403 6.93282C4.23366 7.41695 4.29153 7.86855 4.34772 8.30537C4.44488 9.06325 4.52937 9.71805 4.7651 10.2905C4.88761 10.5875 4.95352 11.05 5.02407 11.5401C5.04561 11.6913 5.06842 11.8421 5.0925 11.9917C4.97717 11.8721 4.79172 11.7488 4.54754 11.7488C4.45925 11.7488 4.36842 11.7653 4.27759 11.7969C3.73094 11.99 3.56999 12.4319 3.60167 12.7808C3.60463 12.815 3.62871 12.9722 3.66926 13.1809C3.54845 13.0104 3.44806 12.8264 3.37017 12.6325C3.22949 12.2815 3.05248 11.7754 2.86491 11.2393C2.67523 10.6973 2.47921 10.1371 2.29925 9.67453C2.0048 8.91792 1.69768 7.78786 1.68036 7.03125C1.6736 6.73384 1.71035 6.49305 1.81216 6.35702C1.88271 6.26281 1.94524 6.17325 2.00565 6.08707L2.0255 6.05919L2.09732 5.95695C2.14314 5.89092 2.1909 5.82626 2.24053 5.76305C2.29925 5.69039 2.35797 5.62871 2.42134 5.57337ZM4.52684 3.43491C4.57669 3.35634 4.62654 3.27312 4.67808 3.18736C4.97886 2.68506 5.32021 2.11517 6.01641 1.999C6.09583 1.9859 6.17398 1.97957 6.25171 1.97957C6.91412 1.97957 7.50639 2.43244 7.89125 2.91403C7.87055 3.02429 7.85238 3.13497 7.83506 3.24481C7.78226 3.58277 7.72692 3.93256 7.57652 4.25236C7.35769 4.71748 7.16252 5.44368 7.03409 6.18128C7.02184 6.25098 7.01086 6.32069 6.99987 6.38997C6.98889 6.4601 6.97875 6.52938 6.96946 6.59866C6.88624 7.19896 6.85286 7.77561 6.89426 8.19046C6.91834 8.43084 6.91538 8.78443 6.91243 9.19378C6.90862 9.71256 6.90398 10.2786 6.94834 10.8029C6.69571 10.8604 6.24326 10.9934 5.99275 11.233C5.9805 11.2448 5.96487 11.2549 5.95346 11.2672C5.93399 11.2884 5.91907 11.3133 5.90963 11.3405C5.90018 11.3677 5.89641 11.3965 5.89854 11.4252C5.91755 11.6922 5.96276 12.0542 6.02148 12.4323C6.0671 12.7242 6.12117 13.022 6.17821 13.2966C6.12371 13.2755 6.07133 13.2565 6.01345 13.2316C5.93149 13.1965 5.86263 13.1167 5.80265 13.0081C5.75746 12.9229 5.72027 12.8336 5.69154 12.7415C5.65466 12.6277 5.6235 12.5121 5.59818 12.3951C5.53312 12.1036 5.48538 11.7783 5.44272 11.4809C5.36879 10.9643 5.29866 10.4763 5.15629 10.1304C4.94169 9.60948 4.86058 8.98045 4.76722 8.25214C4.71018 7.80899 4.65146 7.35062 4.55599 6.85382C4.45237 6.31628 4.38239 5.77279 4.34645 5.22653C4.29491 4.38459 4.35448 3.70571 4.52684 3.43491ZM10.7563 1.38856C11.0837 1.4232 11.2696 1.49417 11.3731 1.55585C11.3203 1.70709 11.2742 1.85452 11.2337 1.99309C11.1365 2.32767 11.0525 2.61662 10.8594 2.89502L10.8015 2.97824L10.7462 3.05851C10.6618 3.15403 10.5861 3.25696 10.5202 3.36606C10.4665 3.45561 10.4179 3.54011 10.3715 3.62164C10.1759 3.9351 10.0196 4.24307 9.95915 4.52019C9.89916 4.72297 9.88184 4.89237 9.90677 5.03939C9.94183 5.25019 10.1193 5.41495 10.262 5.51634C10.4855 5.67433 10.8243 5.81374 11.1378 5.81374C11.1931 5.81374 11.2476 5.80952 11.3004 5.80022C11.3414 5.79304 11.3782 5.77741 11.4162 5.76389C11.3216 6.09341 11.2383 6.46263 11.1936 6.84875C11.1851 6.92141 11.1813 6.99534 11.1758 7.06885C11.1707 7.13517 11.1653 7.20108 11.1627 7.26782C10.9397 7.68517 10.7303 8.10968 10.535 8.54067C10.2388 9.19167 10.2177 9.67749 10.1987 10.1067C10.1835 10.4476 10.1695 10.77 10.0204 11.154C9.96721 11.2863 9.90083 11.413 9.82228 11.5321C9.78679 10.9161 9.71582 10.0281 9.7061 9.94828C9.63682 9.70622 9.35758 9.24828 8.7953 9.24828C8.76361 9.24828 8.72897 9.25926 8.69644 9.26222C8.62716 9.26814 8.5583 9.27236 8.48564 9.29137C8.48353 9.29179 8.48141 9.29137 8.47888 9.29222C8.40284 9.31249 8.3382 9.33066 8.27357 9.34925C7.65552 9.52541 7.51907 9.64961 7.43162 10.203C7.41008 10.3382 7.39867 10.5287 7.39233 10.7459C7.39064 10.8097 7.38938 10.876 7.38853 10.944C7.38128 10.8771 7.37494 10.81 7.36952 10.7429C7.3277 10.2246 7.3315 9.66144 7.33488 9.19674C7.33826 8.77513 7.34079 8.41098 7.3146 8.14821C7.27658 7.76547 7.30911 7.22178 7.38811 6.65358C7.40769 6.51411 7.42952 6.37496 7.45359 6.2362C7.57568 5.54126 7.75775 4.859 7.95884 4.4319C8.0484 4.24138 8.10754 4.05001 8.1519 3.85906C8.19499 3.67444 8.22414 3.49068 8.25245 3.30987L8.27652 3.1599C8.29596 3.04119 8.31708 2.92713 8.34285 2.81729C8.41551 2.50552 8.52915 2.22797 8.77924 1.99604C9.30139 1.51149 9.65287 1.3556 10.2257 1.3556C10.3753 1.3556 10.5434 1.36617 10.7563 1.38856ZM5.11616 14.3109C4.81918 14.4698 4.66794 14.4888 4.43939 14.2894C4.41238 14.2535 4.39062 14.214 4.37476 14.172C4.34365 14.0959 4.31603 14.0186 4.29196 13.94C4.2661 13.8581 4.24216 13.7755 4.22014 13.6925C4.12509 13.3385 4.04018 12.9295 4.02328 12.7432C4.01229 12.6245 4.02919 12.3334 4.41869 12.1962C4.46024 12.1808 4.5041 12.1726 4.54839 12.1721C4.69413 12.1721 4.78918 12.279 4.82044 12.3199C4.84664 12.4015 4.92859 12.6393 5.14742 13.1974C5.15672 13.2214 5.16221 13.24 5.17066 13.2628C5.20361 13.3503 5.23276 13.4327 5.25515 13.5053C5.28345 13.5987 5.30288 13.679 5.31598 13.7508C5.38273 14.1192 5.26317 14.2324 5.11616 14.3109ZM9.28154 12.5823C9.18775 12.7766 9.04792 12.9333 8.865 12.9333C8.74291 12.9333 8.63392 12.9304 8.53169 12.9253C8.50549 12.924 8.47888 12.9232 8.45396 12.9211C8.40368 12.9176 8.35352 12.9125 8.30356 12.9059C8.28244 12.9033 8.25963 12.9012 8.23977 12.8978C8.18052 12.8883 8.12217 12.8739 8.0653 12.8548L8.03362 12.8425C7.93307 12.8024 7.86632 12.7458 7.84098 12.6659C7.83158 12.6393 7.82659 12.6113 7.82619 12.5831L7.82492 12.4281C7.82408 12.352 7.82323 12.2697 7.82154 12.1801L7.82112 12.1379C7.81081 11.7679 7.80715 11.3978 7.81014 11.0276C7.81267 10.7155 7.82281 10.4354 7.849 10.2685C7.89885 9.95462 7.91448 9.89336 8.27357 9.78691C8.33356 9.76916 8.40411 9.74931 8.48522 9.72734L8.58745 9.69988C8.62631 9.68974 8.65969 9.68932 8.69602 9.68425C8.72897 9.6796 8.76446 9.66989 8.79487 9.66989C9.13622 9.66989 9.26422 9.96391 9.29379 10.0471C9.30942 10.2465 9.41334 11.5802 9.41841 11.9887L9.41884 12.0213C9.41884 12.0948 9.40701 12.1852 9.38546 12.2794C9.36265 12.3808 9.32801 12.486 9.28154 12.5823ZM6.69698 13.6676C6.67746 13.5922 6.65888 13.5165 6.64121 13.4407C6.51025 12.8662 6.37634 12.0517 6.32818 11.4961C6.48448 11.3783 6.76288 11.2832 6.99819 11.2254C7.06705 11.6808 7.18913 12.0779 7.40163 12.3482C7.40289 12.4357 7.40374 12.5155 7.40374 12.5835C7.40374 12.9076 7.57483 13.0909 7.80676 13.1999C7.87562 13.2324 7.94828 13.259 8.02601 13.2789C8.07755 13.2924 8.12824 13.3064 8.18147 13.3152C8.18359 13.349 8.18485 13.3832 8.18443 13.42C8.1819 13.7136 8.09234 14.0887 7.8169 14.1986C7.67157 14.2569 7.51738 14.2873 7.37079 14.2873C7.19167 14.2873 6.87525 14.2396 6.76879 13.9193L6.75992 13.8889C6.73674 13.8158 6.71575 13.742 6.69698 13.6676ZM16.0826 7.05449C16.0847 7.05817 16.0871 7.06169 16.0898 7.06505C15.7294 7.07603 15.3936 7.08237 15.1266 7.08575C14.9171 6.89108 14.7029 6.70162 14.484 6.51755C14.4766 6.49427 14.469 6.47104 14.4612 6.44784C14.4609 6.43023 14.4602 6.41262 14.4591 6.39504C14.4578 6.37927 14.4549 6.36369 14.4502 6.34857C14.3645 6.06341 14.1799 5.6004 13.9509 5.13444C14.2973 4.94307 14.751 4.61567 15.086 4.0876L15.2411 4.07873C15.5617 4.06099 15.6758 4.05169 15.8312 3.9879C15.5926 4.96757 15.6352 6.37223 16.0826 7.05449ZM14.0388 6.447C14.04 6.46939 14.0396 6.49262 14.04 6.51586C14.04 6.59697 14.035 6.67977 14.0236 6.75623C14.0092 6.85509 13.9855 6.94254 13.9547 7.00126C13.934 7.0397 13.9108 7.06589 13.8842 7.07307C13.8532 7.08151 13.8212 7.08549 13.7891 7.0849C13.5517 7.0849 13.2332 6.91423 13.0739 6.71779C13.0487 6.68788 13.0269 6.6553 13.0088 6.62063C12.9398 6.4904 12.8662 6.36261 12.7883 6.23746C12.5758 5.88387 12.2353 5.31398 12.196 4.99334C12.1927 4.9663 12.1872 4.938 12.1884 4.91476C12.1893 4.89618 12.1927 4.87801 12.1939 4.85942C12.2046 4.73184 12.2278 4.60562 12.2632 4.4826C12.316 4.29967 12.3891 4.14506 12.4677 4.0593C12.5099 4.01325 12.553 3.98537 12.5953 3.98537C12.6147 3.98537 12.6375 3.99044 12.6612 4.00058L12.6671 4.00396C12.6781 4.00903 12.6907 4.0179 12.703 4.0255C12.7224 4.03818 12.7427 4.05338 12.7642 4.07197C12.7938 4.09774 12.8255 4.129 12.858 4.16576C13.0109 4.33643 13.1934 4.61525 13.3726 4.938C13.4412 5.06199 13.5072 5.18749 13.5703 5.3144C13.7642 5.70433 13.9374 6.11495 14.0388 6.44615V6.447ZM12.5953 3.5625C12.5023 3.5625 12.4216 3.59207 12.3456 3.63262C12.2577 3.68011 12.1806 3.74527 12.1191 3.82399C11.9907 3.98622 11.8999 4.20335 11.8429 4.42345C11.8157 4.52865 11.7953 4.63546 11.7816 4.74325C11.7487 4.81929 11.7119 4.90843 11.6722 5.00855C11.5924 5.12726 11.4817 5.2578 11.3575 5.33088C11.3174 5.35611 11.2732 5.37412 11.2269 5.38411C11.0309 5.41875 10.7284 5.32919 10.5062 5.17204C10.3723 5.07699 10.3284 4.99883 10.3233 4.97011C10.3094 4.88731 10.3233 4.77874 10.3613 4.64693C10.4188 4.4488 10.5358 4.19279 10.7162 3.86962C10.7669 3.77921 10.8214 3.68458 10.8822 3.5832C10.9439 3.48096 11.0123 3.39309 11.0841 3.31283C11.3406 3.02556 11.6498 2.87939 11.9379 2.85447C12.0106 2.84813 12.0811 2.84982 12.1496 2.85869C12.2252 2.86883 12.297 2.88784 12.3642 2.91614C12.3887 2.92628 12.4149 2.93304 12.4377 2.94529C12.665 3.06949 12.7093 3.34789 12.7047 3.5739C12.6687 3.56658 12.632 3.56276 12.5953 3.5625Z" fill="url(#paint0_linear_362_78)"/>
<path d="M9.21013 23.1482C9.18943 23.1507 7.14054 23.4202 5.96232 22.877C5.06545 22.463 4.68144 22.6011 4.23745 22.7621C4.01735 22.8415 3.78923 22.9239 3.45126 22.9543C3.42364 22.9568 3.39677 22.9647 3.3722 22.9776C3.34763 22.9904 3.32584 23.008 3.30806 23.0293C3.29029 23.0506 3.27689 23.0752 3.26863 23.1017C3.26036 23.1282 3.25739 23.156 3.25989 23.1837C3.26577 23.2391 3.29301 23.2901 3.33582 23.3258C3.37864 23.3615 3.43368 23.3792 3.48928 23.375C3.76273 23.3501 4.03157 23.2884 4.28856 23.1917L4.3815 23.1592C4.77227 23.0172 5.03715 22.926 5.73757 23.2403C5.75447 23.2479 5.76841 23.2521 5.78573 23.2606C6.44645 23.5656 7.32008 23.6412 8.02726 23.6412C8.70108 23.6412 9.22407 23.5723 9.26758 23.566C9.32302 23.5584 9.37319 23.5292 9.40709 23.4847C9.44099 23.4402 9.45585 23.384 9.44839 23.3286C9.44504 23.3009 9.43615 23.2742 9.42226 23.25C9.40836 23.2258 9.38975 23.2047 9.36752 23.1879C9.34528 23.171 9.31989 23.1588 9.29285 23.152C9.26582 23.1452 9.23768 23.1439 9.21013 23.1482Z" fill="url(#paint1_linear_362_78)"/>
<path d="M23 9.08055C23 8.94337 23.0762 8.81381 23.2286 8.69187C23.3811 8.58518 23.5716 8.53183 23.8002 8.53183C23.9221 8.53183 24.1355 8.53945 24.4404 8.55469C24.7452 8.55469 24.9357 8.55469 25.012 8.55469C25.332 8.55469 25.6293 8.54707 25.9036 8.53183C26.1932 8.50135 26.4219 8.4861 26.5895 8.4861C26.7724 8.4861 26.9934 8.54707 27.2525 8.66901C27.5117 8.79095 27.6641 8.91288 27.7098 9.03482C27.7555 9.09579 27.8699 9.24059 28.0528 9.46922C28.2509 9.69785 28.51 9.99507 28.8301 10.3609C29.1502 10.7115 29.4398 11.062 29.6989 11.4126C32.5949 15.1926 36.474 19.75 41.3362 25.0848C41.4734 25.2219 41.6335 25.3896 41.8164 25.5877C41.984 25.7859 42.106 25.9307 42.1822 26.0221C42.2584 26.1136 42.3422 26.205 42.4337 26.2965C42.5099 26.3727 42.5785 26.4337 42.6394 26.4794C42.6852 26.5099 42.7309 26.5251 42.7766 26.5251C42.99 26.5251 43.0967 25.8621 43.0967 24.536V20.7865C43.0967 19.3537 43.0891 18.1496 43.0738 17.1741C43.0738 16.1834 43.0662 15.4746 43.051 15.0478C43.0357 14.6058 43.0281 14.3315 43.0281 14.2248V13.9961C43.0281 13.2797 42.9824 12.6624 42.8909 12.1442C42.7995 11.626 42.6852 11.2297 42.548 10.9553C42.4261 10.681 42.2431 10.4447 41.9993 10.2466C41.7554 10.0637 41.5496 9.94173 41.382 9.88076C41.1991 9.83503 40.9476 9.78168 40.6275 9.72072C40.3074 9.6445 40.0864 9.59116 39.9645 9.56067C39.5377 9.42349 39.3243 9.24059 39.3243 9.01196C39.3243 8.69187 39.5301 8.53183 39.9416 8.53183C40.0635 8.53183 40.5741 8.53945 41.4734 8.55469C42.3727 8.55469 42.8757 8.55469 42.9824 8.55469C43.4854 8.55469 44.057 8.54707 44.6971 8.53183C45.3221 8.50135 45.7107 8.4861 45.8631 8.4861C46.2137 8.4861 46.4652 8.52421 46.6176 8.60042C46.7548 8.67663 46.8234 8.82143 46.8234 9.03482C46.8234 9.12627 46.7624 9.2101 46.6405 9.28631C46.5186 9.36253 46.3966 9.42349 46.2747 9.46922C46.1375 9.53019 46.0079 9.57592 45.886 9.6064L45.7031 9.67499C44.9867 10.056 44.6285 11.2602 44.6285 13.2874V14.522C44.6285 16.1376 44.5752 18.9422 44.4685 22.9356C44.3466 26.9443 44.2856 29.4211 44.2856 30.3661V31.0063C44.2856 31.4941 44.1332 31.7379 43.8283 31.7379C43.6454 31.7379 43.4778 31.6617 43.3253 31.5093C36.2378 23.2938 32.0081 18.4087 30.6363 16.854C29.2645 15.3146 28.5024 14.5448 28.35 14.5448C28.1366 14.5448 28.0299 15.2688 28.0299 16.7168C28.0299 18.744 27.9842 20.9237 27.8927 23.2557C27.8165 25.603 27.7784 26.8833 27.7784 27.0967C27.7784 28.057 27.9384 28.7886 28.2585 29.2916C28.5938 29.7946 28.952 30.0765 29.3331 30.1375C29.7141 30.1985 30.0723 30.2671 30.4077 30.3433C30.743 30.4195 30.9106 30.5643 30.9106 30.7777C30.9106 31.0063 30.8725 31.1511 30.7963 31.2121C30.7201 31.2883 30.5829 31.3264 30.3848 31.3264C30.2476 31.3264 29.9123 31.3111 29.3788 31.2807C28.8606 31.2654 28.0604 31.2578 26.9782 31.2578C26.78 31.2578 26.3837 31.2654 25.7893 31.2807C25.1949 31.3111 24.6843 31.3264 24.2575 31.3264C23.785 31.3264 23.5487 31.1511 23.5487 30.8005C23.5487 30.6176 23.6859 30.4957 23.9603 30.4347C24.2346 30.389 24.5776 30.2213 24.9891 29.9317C25.3854 29.6574 25.6902 29.1392 25.9036 28.377C26.0408 27.8893 26.2008 25.9002 26.3837 22.4098C26.5819 18.9346 26.681 16.5339 26.681 15.2079C26.681 13.3788 26.4219 12.007 25.9036 11.0925C25.4006 10.1932 24.5699 9.68261 23.4115 9.56067C23.1372 9.53019 23 9.37015 23 9.08055ZM49.2698 28.4685C49.2698 27.7064 49.4298 27.0586 49.7499 26.5251C50.07 26.0069 50.5577 25.603 51.2131 25.3134C51.8685 25.0238 52.5468 24.7952 53.2479 24.6275C53.9491 24.4598 54.8026 24.2922 55.8086 24.1245C55.9306 24.094 56.0296 24.0712 56.1058 24.0559C56.1668 24.0559 56.2506 24.0483 56.3573 24.033C56.464 24.0178 56.5555 24.0026 56.6317 23.9873C56.7841 23.9721 56.8908 23.9492 56.9518 23.9187C56.9975 23.9035 57.0508 23.8578 57.1118 23.7816C57.1575 23.7053 57.1804 23.6063 57.1804 23.4843C57.1804 23.2709 57.1956 22.9737 57.2261 22.5927C57.2414 22.2269 57.249 21.9677 57.249 21.8153C57.249 20.596 56.8984 19.7119 56.1973 19.1632C55.4962 18.6297 54.8103 18.363 54.1396 18.363C52.6002 18.363 51.8304 19.0032 51.8304 20.2835C51.8304 20.4512 51.8533 20.6645 51.899 20.9237C51.9447 21.1675 51.9676 21.3352 51.9676 21.4266C51.9676 21.8534 51.7771 22.0668 51.396 22.0668C51.2589 22.0668 51.0988 22.0516 50.9159 22.0211C50.7178 21.9906 50.4967 21.9373 50.2529 21.861C50.009 21.7848 49.8109 21.6553 49.6584 21.4724C49.4908 21.2895 49.4069 21.0685 49.4069 20.8093C49.4069 19.9863 49.9709 19.1937 51.0988 18.4316C52.2115 17.6695 53.4385 17.2884 54.7798 17.2884C55.6943 17.2884 56.4716 17.3951 57.1118 17.6085C57.752 17.8219 58.2321 18.0658 58.5522 18.3401C58.857 18.5992 59.0933 18.9498 59.261 19.3918C59.4286 19.8338 59.5277 20.1768 59.5582 20.4207C59.5734 20.6645 59.581 20.9694 59.581 21.3352C59.581 22.8746 59.5582 24.0864 59.5124 24.9704C59.4515 25.8545 59.421 26.6242 59.421 27.2796C59.421 28.0722 59.5048 28.6971 59.6725 29.1544C59.8554 29.6117 60.0612 29.9089 60.2898 30.0461C60.5184 30.168 60.7547 30.2366 60.9985 30.2518C61.2272 30.2823 61.4253 30.328 61.593 30.389C61.7759 30.45 61.8674 30.5795 61.8674 30.7777C61.8674 31.2197 61.1891 31.4407 59.8325 31.4407C59.2838 31.4407 58.8113 31.2959 58.415 31.0063C58.0187 30.7015 57.7367 30.4042 57.5691 30.1146C57.4014 29.825 57.3023 29.6802 57.2719 29.6802C57.2566 29.6802 57.1728 29.7488 57.0204 29.886C56.8679 30.0232 56.6622 30.1909 56.4031 30.389C56.1287 30.5872 55.8315 30.7777 55.5114 30.9606C55.1761 31.1587 54.7874 31.3264 54.3454 31.4636C53.9186 31.6008 53.4918 31.6693 53.065 31.6693C51.6933 31.6693 50.6949 31.3493 50.07 30.7091C49.5365 30.1756 49.2698 29.4288 49.2698 28.4685ZM51.7847 27.9884C51.7847 28.72 51.9981 29.2992 52.4249 29.726C52.8516 30.168 53.4537 30.389 54.2311 30.389C54.795 30.389 55.2751 30.3052 55.6714 30.1375C56.0677 29.9698 56.3573 29.7793 56.5402 29.5659C56.7384 29.3525 56.8908 29.0706 56.9975 28.72C57.1042 28.3542 57.1652 28.0798 57.1804 27.8969C57.1804 27.6988 57.1804 27.4397 57.1804 27.1196V24.8104C57.1804 24.6275 57.1042 24.536 56.9518 24.536C56.9213 24.536 56.8679 24.5437 56.7917 24.5589C56.7308 24.5894 56.6774 24.6046 56.6317 24.6046C56.1439 24.6808 55.8391 24.7342 55.7172 24.7647C55.58 24.7799 55.2828 24.8409 54.8255 24.9476C54.353 25.0543 54.0253 25.1533 53.8424 25.2448C53.6595 25.321 53.4004 25.4506 53.065 25.6335C52.745 25.8164 52.5163 26.0069 52.3791 26.205C52.2267 26.4184 52.0895 26.6776 51.9676 26.9824C51.8457 27.2872 51.7847 27.6226 51.7847 27.9884ZM63.6507 19.0032C63.6507 18.8965 63.6812 18.805 63.7421 18.7288C63.7879 18.6678 63.8869 18.5992 64.0393 18.523C64.207 18.4468 64.3747 18.3858 64.5423 18.3401C64.71 18.2792 64.9615 18.1953 65.2968 18.0886C65.6321 17.9667 65.9446 17.8448 66.2342 17.7228C66.4781 17.6161 66.6991 17.517 66.8972 17.4256C67.0954 17.3341 67.2326 17.2732 67.3088 17.2427C67.3697 17.2122 67.4383 17.1893 67.5145 17.1741C67.606 17.1436 67.7127 17.1284 67.8346 17.1284C68.1547 17.1284 68.3148 17.3341 68.3148 17.7457C68.3148 17.8524 68.2843 18.0886 68.2233 18.4544C68.1623 18.8202 68.1319 19.0946 68.1319 19.2775V28.057C68.1319 28.6971 68.2309 29.2001 68.4291 29.5659C68.6425 29.9165 68.8559 30.1375 69.0692 30.229C69.2979 30.3204 69.5798 30.3738 69.9152 30.389C70.1743 30.4042 70.3496 30.4195 70.441 30.4347C70.5172 30.45 70.6087 30.4881 70.7154 30.549C70.8221 30.61 70.8754 30.7167 70.8754 30.8691C70.8754 31.2349 70.7001 31.4178 70.3496 31.4178C70.3038 31.4178 70.2276 31.4102 70.1209 31.395C70.0142 31.3797 69.9304 31.3721 69.8695 31.3721C69.3969 31.3721 69.0007 31.3645 68.6806 31.3493C68.3605 31.334 67.9947 31.3264 67.5831 31.3264C67.0801 31.3264 66.6 31.334 66.1428 31.3493C65.7007 31.3645 65.4264 31.3721 65.3197 31.3721C64.4661 31.3721 64.0393 31.2349 64.0393 30.9606C64.0393 30.671 64.1994 30.4728 64.5195 30.3661C64.5347 30.3661 64.5728 30.3509 64.6338 30.3204C65.1368 30.1528 65.4416 29.9394 65.5483 29.6802C65.7312 29.2535 65.8227 27.5616 65.8227 24.6046V21.7696C65.8227 21.1599 65.7465 20.6722 65.594 20.3064C65.4569 19.9405 65.3197 19.7195 65.1825 19.6433C65.0606 19.5519 64.8472 19.4757 64.5423 19.4147C64.2223 19.369 64.0317 19.3385 63.9708 19.3232C63.7574 19.2318 63.6507 19.1251 63.6507 19.0032ZM65.4797 12.3043C65.4797 12.0451 65.6626 11.6869 66.0284 11.2297C66.4095 10.7724 66.7601 10.5438 67.0801 10.5438C67.4155 10.5438 67.7432 10.7648 68.0633 11.2068C68.3833 11.6336 68.5434 12.0223 68.5434 12.3728C68.5434 12.7082 68.3452 13.0816 67.9489 13.4931C67.5374 13.9199 67.2326 14.1333 67.0344 14.1333C66.6076 14.1333 66.2418 13.9047 65.937 13.4474C65.6321 13.0054 65.4797 12.6243 65.4797 12.3043ZM72.2244 9.01196C72.2244 8.87478 72.2396 8.7757 72.2701 8.71474C72.3006 8.65377 72.3692 8.60042 72.4758 8.55469C72.5825 8.49373 72.7121 8.448 72.8645 8.41752C73.0017 8.38703 73.2151 8.31844 73.5047 8.21175C73.8095 8.12029 74.1068 8.0136 74.3964 7.89166C74.5793 7.83069 74.846 7.70876 75.1966 7.52585C75.5624 7.35819 75.8825 7.22863 76.1568 7.13718C76.4159 7.04573 76.6446 7 76.8427 7C77.1018 7 77.2314 7.19815 77.2314 7.59444C77.2314 7.68589 77.2085 7.93739 77.1628 8.34893C77.1171 8.76046 77.0713 9.33966 77.0256 10.0865C76.9799 10.8181 76.957 11.6107 76.957 12.4643V14.2476C76.957 15.2536 76.9494 16.1072 76.9342 16.8083C76.9189 17.4942 76.9113 18.0658 76.9113 18.523V28.057C76.9113 28.499 76.9494 28.8648 77.0256 29.1544C77.0866 29.444 77.3305 29.7184 77.7572 29.9775C78.1688 30.2518 78.748 30.389 79.4948 30.389C79.6015 30.389 79.7006 30.4423 79.7921 30.549C79.8683 30.6557 79.9064 30.7624 79.9064 30.8691C79.9064 31.174 79.5787 31.3264 78.9233 31.3264C78.7251 31.3264 78.2297 31.2883 77.4372 31.2121C76.6293 31.1359 76.0425 31.0978 75.6767 31.0978C75.128 31.0978 74.6021 31.1359 74.0991 31.2121C73.5961 31.3035 73.2608 31.3493 73.0932 31.3493C72.9407 31.3493 72.8188 31.3111 72.7273 31.2349C72.6359 31.1587 72.5902 31.0901 72.5902 31.0292C72.5902 30.8615 72.6359 30.7396 72.7273 30.6634C72.8188 30.5872 72.9788 30.5262 73.2075 30.4805C73.4361 30.4195 73.5885 30.3661 73.6647 30.3204C74.0305 30.1528 74.2668 29.9165 74.3735 29.6117C74.4802 29.3221 74.5335 28.8648 74.5335 28.2399C74.5335 28.1637 74.5259 28.0341 74.5107 27.8512C74.5107 27.6683 74.5107 27.5235 74.5107 27.4168V25.039C74.5107 24.2464 74.5259 22.1506 74.5564 18.7517C74.6021 15.3527 74.625 12.9139 74.625 11.4355C74.625 10.9477 74.5488 10.5057 74.3964 10.1094C74.2287 9.71309 74.0534 9.47684 73.8705 9.40063C73.6724 9.30918 73.2456 9.26345 72.5902 9.26345C72.3463 9.26345 72.2244 9.17962 72.2244 9.01196ZM81.804 30.7091C81.804 30.6024 81.804 30.5109 81.804 30.4347C81.8193 30.3585 81.8421 30.2975 81.8726 30.2518C81.8878 30.1909 81.9259 30.107 81.9869 30.0003C82.0479 29.8936 82.1165 29.8022 82.1927 29.726C82.2537 29.6345 82.3527 29.4897 82.4899 29.2916C82.6271 29.0782 82.7566 28.8877 82.8786 28.72C86.7958 23.0957 88.7544 20.1234 88.7544 19.8034C88.7544 19.6967 88.5029 19.6433 87.9999 19.6433C87.7561 19.6433 87.1006 19.6738 86.0337 19.7348C84.982 19.811 84.3418 19.8491 84.1132 19.8491C83.7169 19.8796 83.3892 20.0396 83.1301 20.3292C82.8557 20.6341 82.6499 20.9389 82.5128 21.2437C82.3603 21.5333 82.2308 21.6781 82.1241 21.6781C81.9564 21.6781 81.8726 21.5638 81.8726 21.3352C81.8726 20.9541 81.8955 20.5578 81.9412 20.1463C82.0022 19.7348 82.0707 19.3156 82.147 18.8888C82.2384 18.4468 82.2841 18.1953 82.2841 18.1344C82.3299 17.7533 82.5433 17.5628 82.9243 17.5628C82.9853 17.5628 83.1682 17.5704 83.473 17.5856C83.7626 17.6009 84.1665 17.6161 84.6848 17.6314C85.1878 17.6466 85.7441 17.6542 86.3538 17.6542C87.0092 17.6542 87.8475 17.639 88.8687 17.6085C89.8899 17.578 90.6139 17.5628 91.0407 17.5628C91.2998 17.5628 91.4294 17.6695 91.4294 17.8829C91.4294 18.02 91.3684 18.1801 91.2465 18.363C91.1398 18.5459 91.0026 18.7364 90.835 18.9346C90.6521 19.148 90.5454 19.2851 90.5149 19.3461C89.6156 20.7331 88.602 22.2192 87.4741 23.8044C86.3614 25.4048 85.5536 26.5785 85.0506 27.3253C84.5476 28.0874 84.2961 28.5981 84.2961 28.8572C84.2961 29.0401 84.822 29.1315 85.8737 29.1315C86.1023 29.1315 86.3995 29.1315 86.7653 29.1315C87.1311 29.1163 87.3521 29.1087 87.4283 29.1087C87.9923 29.1087 88.4648 29.0706 88.8459 28.9943C89.2269 28.9181 89.5165 28.8038 89.7147 28.6514C89.928 28.4837 90.0729 28.3389 90.1491 28.217C90.2405 28.1103 90.332 27.9274 90.4234 27.6683C90.5149 27.4092 90.5835 27.2415 90.6292 27.1653C90.7816 26.8605 90.9645 26.708 91.1779 26.708C91.5132 26.708 91.6809 26.8605 91.6809 27.1653C91.6809 27.2872 91.4294 27.935 90.9264 29.1087C90.8654 29.2611 90.7969 29.4745 90.7206 29.7488C90.6444 30.0232 90.5758 30.2518 90.5149 30.4347C90.4691 30.6176 90.3929 30.7777 90.2862 30.9149C90.1948 31.052 90.0728 31.1206 89.9204 31.1206H86.2852C86.148 31.1206 85.8127 31.1282 85.2792 31.1435C84.7305 31.1587 84.2885 31.1664 83.9532 31.1664H83.4044C83.0386 31.1664 82.7795 31.174 82.6271 31.1892H82.3985C82.0022 31.1892 81.804 31.0292 81.804 30.7091Z" fill="black"/>
<defs>
<linearGradient id="paint0_linear_362_78" x1="-2.10539" y1="4.45433" x2="1652.73" y2="776.117" gradientUnits="userSpaceOnUse">
<stop stop-color="#32142D"/>
<stop offset="1" stop-color="#32142D"/>
</linearGradient>
<linearGradient id="paint1_linear_362_78" x1="-8.70451" y1="26.3177" x2="552.413" y2="287.971" gradientUnits="userSpaceOnUse">
<stop stop-color="#32142D"/>
<stop offset="1" stop-color="#32142D"/>
</linearGradient>
</defs>
</svg>
