<svg width="126" height="115" viewBox="0 0 126 115" fill="none" xmlns="http://www.w3.org/2000/svg">
<g clip-path="url(#clip0_114_4)">
<path d="M40.5191 41.7116C40.5191 41.5744 40.5953 41.4449 40.7477 41.3229C40.9002 41.2162 41.0907 41.1629 41.3193 41.1629C41.4413 41.1629 41.6546 41.1705 41.9595 41.1857C42.2643 41.1857 42.4549 41.1857 42.5311 41.1857C42.8511 41.1857 43.1484 41.1781 43.4227 41.1629C43.7123 41.1324 43.941 41.1171 44.1086 41.1171C44.2915 41.1171 44.5125 41.1781 44.7716 41.3001C45.0308 41.422 45.1832 41.5439 45.2289 41.6659C45.2746 41.7268 45.389 41.8716 45.5719 42.1003C45.77 42.3289 46.0291 42.6261 46.3492 42.9919C46.6693 43.3425 46.9589 43.6931 47.218 44.0436C50.114 47.8237 53.9931 52.3811 58.8553 57.7158C58.9925 57.853 59.1526 58.0206 59.3355 58.2188C59.5031 58.4169 59.6251 58.5617 59.7013 58.6532C59.7775 58.7446 59.8613 58.8361 59.9528 58.9275C60.029 59.0038 60.0976 59.0647 60.1585 59.1104C60.2043 59.1409 60.25 59.1562 60.2957 59.1562C60.5091 59.1562 60.6158 58.4931 60.6158 57.1671V53.4175C60.6158 51.9848 60.6082 50.7806 60.5929 49.8051C60.5929 48.8144 60.5853 48.1057 60.5701 47.6789C60.5548 47.2369 60.5472 46.9625 60.5472 46.8558V46.6272C60.5472 45.9108 60.5015 45.2935 60.41 44.7753C60.3186 44.257 60.2043 43.8607 60.0671 43.5864C59.9452 43.312 59.7623 43.0758 59.5184 42.8776C59.2745 42.6947 59.0687 42.5728 58.9011 42.5118C58.7182 42.4661 58.4667 42.4127 58.1466 42.3518C57.8265 42.2755 57.6055 42.2222 57.4836 42.1917C57.0568 42.0545 56.8434 41.8716 56.8434 41.643C56.8434 41.3229 57.0492 41.1629 57.4607 41.1629C57.5826 41.1629 58.0932 41.1705 58.9925 41.1857C59.8918 41.1857 60.3948 41.1857 60.5015 41.1857C61.0045 41.1857 61.5761 41.1781 62.2162 41.1629C62.8412 41.1324 63.2298 41.1171 63.3823 41.1171C63.7328 41.1171 63.9843 41.1553 64.1367 41.2315C64.2739 41.3077 64.3425 41.4525 64.3425 41.6659C64.3425 41.7573 64.2815 41.8411 64.1596 41.9174C64.0377 41.9936 63.9157 42.0545 63.7938 42.1003C63.6566 42.1612 63.5271 42.207 63.4051 42.2374L63.2222 42.306C62.5058 42.6871 62.1476 43.8912 62.1476 45.9184V47.153C62.1476 48.7687 62.0943 51.5732 61.9876 55.5667C61.8657 59.5753 61.8047 62.0522 61.8047 62.9972V63.6374C61.8047 64.1251 61.6523 64.369 61.3474 64.369C61.1645 64.369 60.9969 64.2928 60.8444 64.1403C53.7569 55.9248 49.5272 51.0398 48.1554 49.4851C46.7836 47.9456 46.0215 47.1759 45.8691 47.1759C45.6557 47.1759 45.549 47.8999 45.549 49.3479C45.549 51.3751 45.5033 53.5547 45.4118 55.8867C45.3356 58.234 45.2975 59.5144 45.2975 59.7278C45.2975 60.688 45.4575 61.4196 45.7776 61.9226C46.113 62.4256 46.4711 62.7076 46.8522 62.7685C47.2332 62.8295 47.5914 62.8981 47.9268 62.9743C48.2621 63.0505 48.4298 63.1953 48.4298 63.4087C48.4298 63.6374 48.3916 63.7822 48.3154 63.8431C48.2392 63.9193 48.102 63.9574 47.9039 63.9574C47.7667 63.9574 47.4314 63.9422 46.8979 63.9117C46.3797 63.8965 45.5795 63.8888 44.4973 63.8888C44.2991 63.8888 43.9028 63.8965 43.3084 63.9117C42.714 63.9422 42.2034 63.9574 41.7766 63.9574C41.3041 63.9574 41.0678 63.7822 41.0678 63.4316C41.0678 63.2487 41.205 63.1267 41.4794 63.0658C41.7537 63.02 42.0967 62.8524 42.5082 62.5628C42.9045 62.2884 43.2093 61.7702 43.4227 61.0081C43.5599 60.5203 43.7199 58.5312 43.9028 55.0408C44.101 51.5656 44.2001 49.165 44.2001 47.8389C44.2001 46.0099 43.941 44.6381 43.4227 43.7235C42.9197 42.8243 42.089 42.3137 40.9306 42.1917C40.6563 42.1612 40.5191 42.0012 40.5191 41.7116ZM66.7889 61.0995C66.7889 60.3374 66.9489 59.6896 67.269 59.1562C67.5891 58.6379 68.0768 58.234 68.7322 57.9444C69.3876 57.6548 70.0659 57.4262 70.767 57.2585C71.4682 57.0909 72.3217 56.9232 73.3277 56.7555C73.4497 56.7251 73.5487 56.7022 73.6249 56.687C73.6859 56.687 73.7697 56.6793 73.8764 56.6641C73.9831 56.6488 74.0746 56.6336 74.1508 56.6184C74.3032 56.6031 74.4099 56.5803 74.4709 56.5498C74.5166 56.5345 74.57 56.4888 74.6309 56.4126C74.6766 56.3364 74.6995 56.2373 74.6995 56.1154C74.6995 55.902 74.7148 55.6048 74.7452 55.2237C74.7605 54.8579 74.7681 54.5988 74.7681 54.4464C74.7681 53.227 74.4175 52.343 73.7164 51.7942C73.0153 51.2608 72.3294 50.994 71.6587 50.994C70.1193 50.994 69.3495 51.6342 69.3495 52.9145C69.3495 53.0822 69.3724 53.2956 69.4181 53.5547C69.4639 53.7986 69.4867 53.9662 69.4867 54.0577C69.4867 54.4845 69.2962 54.6979 68.9151 54.6979C68.778 54.6979 68.6179 54.6826 68.435 54.6521C68.2369 54.6216 68.0159 54.5683 67.772 54.4921C67.5281 54.4159 67.33 54.2863 67.1775 54.1034C67.0099 53.9205 66.926 53.6995 66.926 53.4404C66.926 52.6173 67.49 51.8247 68.6179 51.0626C69.7306 50.3005 70.9576 49.9195 72.2989 49.9195C73.2134 49.9195 73.9908 50.0262 74.6309 50.2395C75.2711 50.4529 75.7512 50.6968 76.0713 50.9712C76.3761 51.2303 76.6124 51.5808 76.7801 52.0229C76.9477 52.4649 77.0468 52.8078 77.0773 53.0517C77.0925 53.2956 77.1001 53.6004 77.1001 53.9662C77.1001 55.5057 77.0773 56.7174 77.0316 57.6015C76.9706 58.4855 76.9401 59.2552 76.9401 59.9107C76.9401 60.7032 77.0239 61.3282 77.1916 61.7854C77.3745 62.2427 77.5803 62.5399 77.8089 62.6771C78.0375 62.799 78.2738 62.8676 78.5177 62.8829C78.7463 62.9133 78.9444 62.9591 79.1121 63.02C79.295 63.081 79.3865 63.2106 79.3865 63.4087C79.3865 63.8507 78.7082 64.0718 77.3516 64.0718C76.8029 64.0718 76.3304 63.9269 75.9341 63.6374C75.5378 63.3325 75.2558 63.0353 75.0882 62.7457C74.9205 62.4561 74.8214 62.3113 74.791 62.3113C74.7757 62.3113 74.6919 62.3799 74.5395 62.5171C74.387 62.6542 74.1813 62.8219 73.9222 63.02C73.6478 63.2182 73.3506 63.4087 73.0305 63.5916C72.6952 63.7898 72.3065 63.9574 71.8645 64.0946C71.4377 64.2318 71.0109 64.3004 70.5841 64.3004C69.2124 64.3004 68.214 63.9803 67.5891 63.3401C67.0556 62.8067 66.7889 62.0598 66.7889 61.0995ZM69.3038 60.6194C69.3038 61.351 69.5172 61.9302 69.944 62.357C70.3708 62.799 70.9728 63.02 71.7502 63.02C72.3141 63.02 72.7942 62.9362 73.1905 62.7685C73.5868 62.6009 73.8764 62.4104 74.0593 62.197C74.2575 61.9836 74.4099 61.7016 74.5166 61.351C74.6233 60.9852 74.6843 60.7109 74.6995 60.528C74.6995 60.3298 74.6995 60.0707 74.6995 59.7506V57.4414C74.6995 57.2585 74.6233 57.1671 74.4709 57.1671C74.4404 57.1671 74.387 57.1747 74.3108 57.1899C74.2499 57.2204 74.1965 57.2357 74.1508 57.2357C73.663 57.3119 73.3582 57.3652 73.2363 57.3957C73.0991 57.411 72.8019 57.4719 72.3446 57.5786C71.8721 57.6853 71.5444 57.7844 71.3615 57.8758C71.1786 57.952 70.9195 58.0816 70.5841 58.2645C70.2641 58.4474 70.0354 58.6379 69.8982 58.8361C69.7458 59.0495 69.6086 59.3086 69.4867 59.6134C69.3648 59.9183 69.3038 60.2536 69.3038 60.6194ZM81.1698 51.6342C81.1698 51.5275 81.2003 51.436 81.2612 51.3598C81.307 51.2989 81.406 51.2303 81.5585 51.1541C81.7261 51.0779 81.8938 51.0169 82.0614 50.9712C82.2291 50.9102 82.4806 50.8264 82.8159 50.7197C83.1513 50.5977 83.4637 50.4758 83.7533 50.3539C83.9972 50.2472 84.2182 50.1481 84.4163 50.0566C84.6145 49.9652 84.7517 49.9042 84.8279 49.8737C84.8889 49.8433 84.9574 49.8204 85.0336 49.8051C85.1251 49.7747 85.2318 49.7594 85.3537 49.7594C85.6738 49.7594 85.8339 49.9652 85.8339 50.3767C85.8339 50.4834 85.8034 50.7197 85.7424 51.0855C85.6814 51.4513 85.651 51.7256 85.651 51.9086V60.688C85.651 61.3282 85.75 61.8312 85.9482 62.197C86.1616 62.5475 86.375 62.7686 86.5883 62.86C86.817 62.9515 87.099 63.0048 87.4343 63.02C87.6934 63.0353 87.8687 63.0505 87.9601 63.0658C88.0363 63.081 88.1278 63.1191 88.2345 63.1801C88.3412 63.2411 88.3945 63.3478 88.3945 63.5002C88.3945 63.866 88.2192 64.0489 87.8687 64.0489C87.823 64.0489 87.7467 64.0413 87.64 64.026C87.5334 64.0108 87.4495 64.0032 87.3886 64.0032C86.916 64.0032 86.5198 63.9955 86.1997 63.9803C85.8796 63.9651 85.5138 63.9574 85.1022 63.9574C84.5993 63.9574 84.1191 63.9651 83.6619 63.9803C83.2198 63.9955 82.9455 64.0032 82.8388 64.0032C81.9852 64.0032 81.5585 63.866 81.5585 63.5916C81.5585 63.302 81.7185 63.1039 82.0386 62.9972C82.0538 62.9972 82.0919 62.9819 82.1529 62.9515C82.6559 62.7838 82.9607 62.5704 83.0674 62.3113C83.2503 61.8845 83.3418 60.1926 83.3418 57.2357V54.4006C83.3418 53.791 83.2656 53.3032 83.1131 52.9374C82.976 52.5716 82.8388 52.3506 82.7016 52.2744C82.5797 52.1829 82.3663 52.1067 82.0614 52.0457C81.7414 52 81.5508 51.9695 81.4899 51.9543C81.2765 51.8628 81.1698 51.7561 81.1698 51.6342ZM82.9988 44.9353C82.9988 44.6762 83.1817 44.318 83.5475 43.8607C83.9286 43.4035 84.2792 43.1748 84.5993 43.1748C84.9346 43.1748 85.2623 43.3958 85.5824 43.8379C85.9025 44.2646 86.0625 44.6533 86.0625 45.0039C86.0625 45.3392 85.8643 45.7126 85.4681 46.1242C85.0565 46.551 84.7517 46.7643 84.5535 46.7643C84.1267 46.7643 83.7609 46.5357 83.4561 46.0785C83.1512 45.6364 82.9988 45.2554 82.9988 44.9353ZM89.7435 41.643C89.7435 41.5058 89.7587 41.4067 89.7892 41.3458C89.8197 41.2848 89.8883 41.2315 89.995 41.1857C90.1016 41.1248 90.2312 41.079 90.3836 41.0486C90.5208 41.0181 90.7342 40.9495 91.0238 40.8428C91.3286 40.7513 91.6259 40.6446 91.9155 40.5227C92.0984 40.4617 92.3651 40.3398 92.7157 40.1569C93.0815 39.9892 93.4016 39.8597 93.6759 39.7682C93.935 39.6768 94.1637 39.631 94.3618 39.631C94.6209 39.631 94.7505 39.8292 94.7505 40.2255C94.7505 40.3169 94.7276 40.5684 94.6819 40.98C94.6362 41.3915 94.5904 41.9707 94.5447 42.7176C94.499 43.4492 94.4761 44.2418 94.4761 45.0953V46.8787C94.4761 47.8846 94.4685 48.7382 94.4533 49.4393C94.438 50.1252 94.4304 50.6968 94.4304 51.1541V60.688C94.4304 61.13 94.4685 61.4958 94.5447 61.7854C94.6057 62.075 94.8496 62.3494 95.2763 62.6085C95.6879 62.8829 96.2671 63.02 97.0139 63.02C97.1206 63.02 97.2197 63.0734 97.3112 63.1801C97.3874 63.2868 97.4255 63.3935 97.4255 63.5002C97.4255 63.805 97.0978 63.9574 96.4424 63.9574C96.2442 63.9574 95.7488 63.9193 94.9563 63.8431C94.1484 63.7669 93.5616 63.7288 93.1958 63.7288C92.6471 63.7288 92.1212 63.7669 91.6182 63.8431C91.1152 63.9346 90.7799 63.9803 90.6123 63.9803C90.4598 63.9803 90.3379 63.9422 90.2464 63.866C90.155 63.7898 90.1093 63.7212 90.1093 63.6602C90.1093 63.4925 90.155 63.3706 90.2464 63.2944C90.3379 63.2182 90.4979 63.1572 90.7266 63.1115C90.9552 63.0505 91.1076 62.9972 91.1838 62.9515C91.5496 62.7838 91.7859 62.5475 91.8926 62.2427C91.9993 61.9531 92.0526 61.4958 92.0526 60.8709C92.0526 60.7947 92.045 60.6651 92.0298 60.4822C92.0298 60.2993 92.0298 60.1545 92.0298 60.0478V57.6701C92.0298 56.8775 92.045 54.7817 92.0755 51.3827C92.1212 47.9837 92.1441 45.545 92.1441 44.0665C92.1441 43.5787 92.0679 43.1367 91.9155 42.7404C91.7478 42.3441 91.5725 42.1079 91.3896 42.0317C91.1915 41.9402 90.7647 41.8945 90.1093 41.8945C89.8654 41.8945 89.7435 41.8107 89.7435 41.643ZM99.3231 63.3401C99.3231 63.2334 99.3231 63.142 99.3231 63.0658C99.3384 62.9896 99.3612 62.9286 99.3917 62.8829C99.407 62.8219 99.4451 62.7381 99.506 62.6314C99.567 62.5247 99.6356 62.4332 99.7118 62.357C99.7728 62.2656 99.8718 62.1208 100.009 61.9226C100.146 61.7092 100.276 61.5187 100.398 61.351C104.315 55.7267 106.274 52.7545 106.274 52.4344C106.274 52.3277 106.022 52.2744 105.519 52.2744C105.275 52.2744 104.62 52.3048 103.553 52.3658C102.501 52.442 101.861 52.4801 101.632 52.4801C101.236 52.5106 100.908 52.6707 100.649 52.9603C100.375 53.2651 100.169 53.5699 100.032 53.8748C99.8795 54.1644 99.7499 54.3092 99.6432 54.3092C99.4755 54.3092 99.3917 54.1949 99.3917 53.9662C99.3917 53.5852 99.4146 53.1889 99.4603 52.7774C99.5213 52.3658 99.5899 51.9467 99.6661 51.5199C99.7575 51.0779 99.8032 50.8264 99.8032 50.7654C99.849 50.3843 100.062 50.1938 100.443 50.1938C100.504 50.1938 100.687 50.2014 100.992 50.2167C101.282 50.2319 101.686 50.2472 102.204 50.2624C102.707 50.2777 103.263 50.2853 103.873 50.2853C104.528 50.2853 105.367 50.27 106.388 50.2395C107.409 50.2091 108.133 50.1938 108.56 50.1938C108.819 50.1938 108.949 50.3005 108.949 50.5139C108.949 50.6511 108.888 50.8111 108.766 50.994C108.659 51.1769 108.522 51.3675 108.354 51.5656C108.171 51.779 108.064 51.9162 108.034 51.9771C107.135 53.3642 106.121 54.8503 104.993 56.4355C103.881 58.0359 103.073 59.2095 102.57 59.9564C102.067 60.7185 101.815 61.2291 101.815 61.4882C101.815 61.6711 102.341 61.7626 103.393 61.7626C103.621 61.7626 103.919 61.7626 104.284 61.7626C104.65 61.7473 104.871 61.7397 104.947 61.7397C105.511 61.7397 105.984 61.7016 106.365 61.6254C106.746 61.5492 107.036 61.4349 107.234 61.2824C107.447 61.1148 107.592 60.97 107.668 60.848C107.76 60.7414 107.851 60.5584 107.943 60.2993C108.034 60.0402 108.103 59.8726 108.148 59.7963C108.301 59.4915 108.484 59.3391 108.697 59.3391C109.032 59.3391 109.2 59.4915 109.2 59.7963C109.2 59.9183 108.949 60.5661 108.446 61.7397C108.385 61.8921 108.316 62.1055 108.24 62.3799C108.164 62.6542 108.095 62.8829 108.034 63.0658C107.988 63.2487 107.912 63.4087 107.805 63.5459C107.714 63.6831 107.592 63.7517 107.44 63.7517H103.804C103.667 63.7517 103.332 63.7593 102.798 63.7745C102.25 63.7898 101.808 63.7974 101.472 63.7974H100.924C100.558 63.7974 100.299 63.805 100.146 63.8203H99.9176C99.5213 63.8203 99.3231 63.6602 99.3231 63.3401Z" fill="black"/>
<path d="M34.7515 40.0397C34.7194 39.8986 34.6915 39.7803 34.6755 39.6899C34.651 39.5564 34.6307 39.232 34.6066 38.856C34.5297 37.6406 34.414 35.8038 33.9387 34.9319C33.3654 33.88 32.7812 33.2543 31.6178 33.4997C31.3516 33.5555 30.963 33.545 30.5857 33.5226C30.4019 33.512 30.219 33.501 30.042 33.501C29.5803 33.501 29.0024 33.5686 28.631 34.0946C28.5034 34.2749 28.4113 34.4477 28.3324 34.6159C28.1494 34.517 27.9099 34.4473 27.6015 34.4148C27.3734 34.3907 27.1905 34.3797 27.0261 34.3797C26.3451 34.3797 25.8914 34.577 25.2924 35.1334C25.0758 35.3358 24.9128 35.5888 24.818 35.8697C24.3026 35.3302 23.5633 34.8917 22.748 35.0286C21.8591 35.1769 21.4472 35.8642 21.1169 36.4168C21.0674 36.4992 21.0197 36.5794 20.9715 36.6546C20.7384 37.0213 20.6847 37.723 20.7151 38.4602C20.4586 38.3657 20.1852 38.3259 19.9125 38.3432C19.2754 38.3808 18.9628 38.6313 18.7034 38.9591C18.6635 38.9616 18.6251 38.9754 18.5926 38.9987C18.5602 39.0221 18.535 39.0542 18.5201 39.0913C18.5129 39.1099 18.4787 39.2007 18.4292 39.3363C18.3806 39.4061 18.3325 39.4758 18.2763 39.5505C18.1268 39.7495 18.0693 40.049 18.0651 40.3904C17.7533 41.3455 17.3892 42.6146 17.3499 43.4434C17.3211 44.0471 17.229 45.0927 17.131 46.1999C16.9967 47.7237 16.8442 49.4511 16.8049 50.5905C16.7601 51.8904 17.0305 53.4289 17.2481 54.6654C17.3634 55.3207 17.4627 55.8863 17.4863 56.2585C17.515 56.716 17.4407 57.8731 17.3625 59.0987C17.2565 60.7589 17.1357 62.6405 17.2143 63.5437C17.2299 63.7211 17.2434 63.9134 17.2578 64.117C17.3706 65.6986 17.5408 68.0889 19.0283 69.9494C19.3447 70.3448 19.8727 70.5535 20.5559 70.5535C22.3166 70.5535 24.9595 69.1944 26.703 67.3927C27.5935 66.4721 28.6433 65.0354 28.59 63.414C28.5406 61.9076 28.4384 60.7416 28.3556 59.805C28.2297 58.3725 28.1537 57.5081 28.3961 56.8576C28.4097 56.8129 28.4313 56.7711 28.4599 56.7342C28.5782 56.6159 28.7257 56.5403 28.9115 56.4444C29.5921 56.0946 30.6204 55.5653 32.2548 52.1789C32.412 51.9098 32.5793 51.6432 32.744 51.38C33.3456 50.4198 33.9142 49.5124 33.9142 48.6586C33.9142 48.3037 33.8618 47.7415 33.7875 47.085C33.9539 46.6 34.6172 44.6462 34.9281 43.4025C35.2386 42.1596 34.9218 40.7807 34.7515 40.0397ZM34.5175 43.2998C34.3092 44.1346 33.9387 45.2959 33.6705 46.1066L33.6265 45.7479C33.5133 44.8325 33.3967 43.8853 33.3519 43.2343C33.2839 42.2479 32.8733 41.5407 32.3389 40.948C32.7073 40.9404 33.1377 40.9286 33.5594 40.9087C33.6125 40.9035 33.6618 40.8785 33.6972 40.8385C33.7327 40.7985 33.7517 40.7466 33.7505 40.6932C33.7492 40.6398 33.7278 40.5888 33.6906 40.5505C33.6533 40.5122 33.603 40.4894 33.5496 40.4867C33.5074 40.4867 33.379 40.4867 33.2366 40.2695C32.8268 39.6447 32.7985 37.99 33.1821 37.1079C33.1997 37.0682 33.2047 37.024 33.1962 36.9814C33.1877 36.9387 33.1662 36.8998 33.1346 36.8699C33.1031 36.84 33.0631 36.8205 33.0201 36.8143C32.977 36.8081 32.9331 36.8153 32.8944 36.835L32.695 36.9364C32.4107 37.0821 32.4107 37.0821 32.0187 37.1037L31.7508 37.1193C31.7161 37.1215 31.6824 37.1322 31.6529 37.1506C31.6233 37.1689 31.5988 37.1943 31.5814 37.2245C31.2937 37.7213 30.8734 38.0267 30.5561 38.2038C30.3517 37.8307 30.1269 37.4898 29.9111 37.2714C29.9541 36.9512 29.9656 36.3082 29.4409 36.0218C29.3435 35.97 29.2396 35.9315 29.1321 35.9073C29.0598 35.8898 28.9862 35.8785 28.912 35.8735C28.8429 35.8707 28.7736 35.8734 28.705 35.8815C28.571 35.8919 28.439 35.92 28.3125 35.9652C28.359 35.8317 28.4008 35.6969 28.4409 35.5588C28.4582 35.4996 28.4768 35.4392 28.495 35.3792C28.5153 35.3116 28.5385 35.2436 28.5617 35.1748C28.59 35.0911 28.6217 35.0066 28.6581 34.92C28.7371 34.7329 28.8351 34.5411 28.9774 34.3392C29.1853 34.0447 29.4945 33.9243 30.0433 33.9243C30.2123 33.9243 30.3867 33.9349 30.5625 33.945C30.9782 33.9695 31.3994 33.9784 31.7065 33.9138C32.5408 33.7376 32.9502 33.9995 33.5691 35.1346C34 35.9246 34.117 37.7767 34.1867 38.8835C34.2133 39.3042 34.2323 39.6084 34.2615 39.7664C34.2788 39.8615 34.3071 39.9861 34.3413 40.1348C34.5023 40.8407 34.8043 42.1554 34.5175 43.2998ZM32.3854 51.1557C32.2291 51.4045 32.0727 51.6576 31.9224 51.9119L31.9147 51.903C31.9012 51.9313 31.8919 51.9567 31.8784 51.9854C30.3027 55.2535 29.3488 55.7435 28.7176 56.0684C28.5157 56.1719 28.3256 56.2699 28.1591 56.4364C28.0949 56.5014 28.0425 56.5914 27.9986 56.7101C27.7236 57.4494 27.8026 58.3497 27.934 59.8409C28.0159 60.7728 28.1182 61.9321 28.1668 63.4271C28.2153 64.9002 27.2319 66.2364 26.3984 67.0978C24.7255 68.8265 22.2131 70.1302 20.5546 70.1302C19.9965 70.1302 19.5935 69.9802 19.3569 69.6845C17.9519 67.9271 17.7934 65.7071 17.6781 64.0861C17.6633 63.88 17.6498 63.6861 17.6342 63.5065C17.5581 62.6346 17.6777 60.7695 17.7833 59.1244C17.8661 57.8317 17.9375 56.7156 17.9071 56.2311C17.8822 55.8352 17.7808 55.259 17.6633 54.5911C17.4496 53.374 17.183 51.8595 17.2261 50.604C17.2654 49.476 17.417 47.7546 17.551 46.2363C17.649 45.1248 17.7415 44.0746 17.771 43.4629C17.7968 42.928 17.973 42.1773 18.1796 41.4566C18.3642 42.3827 18.7004 43.2584 18.7068 43.274C18.8838 43.7303 19.079 44.2866 19.2674 44.8253C19.4566 45.3656 19.6349 45.8763 19.779 46.2358C19.9627 46.6942 20.277 47.1509 20.6572 47.4119C20.743 47.6992 20.8457 47.9523 20.9589 48.0511C21.0903 48.1656 21.2753 48.2978 21.5427 48.2978C21.7172 48.2978 21.9043 48.2429 22.1155 48.1297C22.5883 47.8762 22.6225 47.4474 22.5025 46.9739C22.5481 47.0089 22.5942 47.0436 22.6474 47.066C22.8054 47.134 22.9499 47.1847 23.0893 47.2278C23.1159 47.3296 23.1421 47.4225 23.1683 47.5002C23.3056 47.9113 23.6803 48.1567 24.1712 48.1567C24.371 48.1567 24.5793 48.1153 24.774 48.0376C25.2683 47.8399 25.4246 47.2535 25.4077 46.7985C25.4998 46.8011 25.5881 46.8023 25.665 46.8023C26.278 46.8023 26.5716 46.1184 26.6294 45.6393C26.8854 45.3895 27.0847 45.0875 27.2137 44.7539C27.3882 44.3052 27.4046 43.9326 27.4207 43.5723C27.4397 43.1435 27.4575 42.7388 27.7194 42.1626C27.8199 41.9412 27.9196 41.7401 28.0168 41.5462C28.0763 41.8918 28.1836 42.2293 28.3661 42.5394C29.1967 43.9512 29.1802 44.0264 29.0708 44.5143C29.0497 44.6086 29.026 44.7159 29.0032 44.8451C28.9762 44.9985 28.9128 45.216 28.8393 45.4687C28.6369 46.164 28.3602 47.1167 28.3847 48.1559C28.3866 48.2117 28.4103 48.2646 28.4508 48.3032C28.4912 48.3417 28.5452 48.3628 28.601 48.362C28.6505 48.3601 28.6977 48.3407 28.7341 48.3071C28.7574 48.2873 28.776 48.2626 28.7886 48.2348C28.8012 48.207 28.8076 48.1767 28.8072 48.1462C28.784 47.172 29.0505 46.2557 29.2448 45.5865C29.3217 45.3225 29.3881 45.0944 29.4189 44.9186C29.4404 44.7965 29.4628 44.6956 29.4831 44.6069C29.6246 43.9723 29.5887 43.7852 28.7299 42.3256C28.4794 41.8998 28.3877 41.4055 28.386 40.9079C28.3856 40.8749 28.3873 40.8424 28.3877 40.8094C28.3885 40.7668 28.3881 40.7245 28.3902 40.6819C28.394 40.6079 28.4004 40.5348 28.4075 40.4613C28.4173 40.357 28.4299 40.2543 28.4456 40.1521C28.4982 39.8166 28.5759 39.4854 28.6779 39.1615L28.6914 39.1171C28.7045 39.0753 28.7176 39.0326 28.7307 38.9929C28.773 39.0871 28.8207 39.1851 28.8744 39.2865C28.9098 39.3541 28.9474 39.4225 28.9872 39.4927C29.0619 39.6245 29.1418 39.7609 29.2263 39.9016L29.2689 39.973C29.3361 40.0849 29.3957 40.1851 29.4311 40.2564C29.4544 40.3021 29.4827 40.3473 29.5148 40.3908C29.6153 40.5268 29.7564 40.6498 29.9161 40.7461C30.0091 40.8018 30.1079 40.847 30.208 40.8817C30.336 40.9265 30.4662 40.9535 30.5891 40.9535C30.6643 40.9535 30.7353 40.9442 30.8003 40.9256C30.908 40.8948 30.9866 40.8301 31.0508 40.752C31.0969 40.6958 31.1366 40.6341 31.1649 40.5648C31.1801 40.5277 31.1907 40.4884 31.2012 40.4499C31.3157 40.5479 31.4268 40.6476 31.5367 40.7473C31.6123 40.8162 31.6858 40.8863 31.7572 40.9569C32.3761 41.5622 32.8598 42.2449 32.9299 43.2635C32.9755 43.9259 33.0934 44.8785 33.2066 45.7994C33.2488 46.1416 33.2911 46.4851 33.33 46.8163L33.3595 47.0719L33.3857 47.3089C33.4474 47.8699 33.4905 48.3561 33.4905 48.6582C33.4905 49.1043 33.2898 49.5973 33.0059 50.119C32.8681 50.3683 32.7236 50.6138 32.5725 50.8554L32.3854 51.1557ZM19.2213 39.0199C19.3903 38.8721 19.5952 38.785 19.9361 38.7648C20.2142 38.7475 20.492 38.803 20.7422 38.9257C20.7623 39.1702 20.7892 39.414 20.8228 39.657C20.8592 39.9227 20.9002 40.1698 20.9403 40.3794C21.0336 40.8635 21.0915 41.3151 21.1477 41.7519C21.2449 42.5098 21.3294 43.1646 21.5651 43.737C21.6876 44.034 21.7535 44.4966 21.8241 44.9866C21.8456 45.1379 21.8684 45.2887 21.8925 45.4382C21.7772 45.3187 21.5917 45.1953 21.3475 45.1953C21.2592 45.1953 21.1684 45.2118 21.0776 45.2435C20.5309 45.4366 20.37 45.8784 20.4017 46.2274C20.4046 46.2616 20.4287 46.4188 20.4693 46.6275C20.3484 46.457 20.248 46.273 20.1702 46.0791C20.0295 45.7281 19.8525 45.222 19.6649 44.6859C19.4752 44.1439 19.2792 43.5837 19.0992 43.1211C18.8048 42.3645 18.4977 41.2344 18.4803 40.4778C18.4736 40.1804 18.5103 39.9396 18.6122 39.8036C18.6827 39.7094 18.7452 39.6198 18.8056 39.5336L18.8255 39.5058L18.8973 39.4035C18.9431 39.3375 18.9909 39.2728 19.0405 39.2096C19.0992 39.137 19.158 39.0753 19.2213 39.0199ZM21.3268 36.8815C21.3767 36.8029 21.4265 36.7197 21.4781 36.6339C21.7789 36.1316 22.1202 35.5617 22.8164 35.4456C22.8958 35.4325 22.974 35.4261 23.0517 35.4261C23.7141 35.4261 24.3064 35.879 24.6912 36.3606C24.6705 36.4709 24.6524 36.5815 24.6351 36.6914C24.5822 37.0293 24.5269 37.3791 24.3765 37.6989C24.1577 38.164 23.9625 38.8902 23.8341 39.6278C23.8218 39.6975 23.8108 39.7672 23.7999 39.8365C23.7889 39.9067 23.7787 39.9759 23.7694 40.0452C23.6862 40.6455 23.6528 41.2222 23.6942 41.637C23.7183 41.8774 23.7154 42.231 23.7124 42.6403C23.7086 43.1591 23.704 43.7252 23.7483 44.2495C23.4957 44.3069 23.0433 44.44 22.7927 44.6795C22.7805 44.6914 22.7649 44.7015 22.7534 44.7137C22.734 44.7349 22.7191 44.7599 22.7096 44.787C22.7002 44.8142 22.6964 44.843 22.6985 44.8717C22.7175 45.1387 22.7627 45.5008 22.8215 45.8789C22.8671 46.1708 22.9212 46.4686 22.9782 46.7432C22.9237 46.7221 22.8713 46.7031 22.8134 46.6781C22.7315 46.6431 22.6626 46.5632 22.6026 46.4547C22.5575 46.3694 22.5203 46.2802 22.4915 46.1881C22.4546 46.0743 22.4235 45.9586 22.3982 45.8417C22.3331 45.5502 22.2854 45.2249 22.2427 44.9275C22.1688 44.4108 22.0986 43.9229 21.9563 43.5769C21.7417 43.056 21.6606 42.427 21.5672 41.6987C21.5102 41.2555 21.4515 40.7972 21.356 40.3004C21.2524 39.7628 21.1824 39.2194 21.1464 38.6731C21.0949 37.8312 21.1545 37.1523 21.3268 36.8815ZM27.5563 34.8351C27.8837 34.8698 28.0696 34.9407 28.1731 35.0024C28.1203 35.1536 28.0742 35.3011 28.0337 35.4396C27.9365 35.7742 27.8524 36.0632 27.6594 36.3416L27.6015 36.4248L27.5462 36.5051C27.4617 36.6006 27.3861 36.7035 27.3202 36.8126C27.2665 36.9022 27.2179 36.9867 27.1715 37.0682C26.9759 37.3817 26.8196 37.6896 26.7591 37.9668C26.6992 38.1695 26.6818 38.3389 26.7068 38.486C26.7418 38.6968 26.9192 38.8615 27.062 38.9629C27.2855 39.1209 27.6243 39.2603 27.9378 39.2603C27.9931 39.2603 28.0476 39.2561 28.1004 39.2468C28.1414 39.2396 28.1782 39.224 28.2162 39.2105C28.1215 39.54 28.0383 39.9092 27.9935 40.2953C27.9851 40.368 27.9813 40.4419 27.9758 40.5154C27.9707 40.5817 27.9652 40.6476 27.9627 40.7144C27.7397 41.1317 27.5303 41.5562 27.3349 41.9872C27.0388 42.6382 27.0177 43.1241 26.9987 43.5533C26.9835 43.8942 26.9695 44.2165 26.8204 44.6005C26.7672 44.7329 26.7008 44.8595 26.6223 44.9786C26.5868 44.3627 26.5158 43.4747 26.5061 43.3948C26.4368 43.1528 26.1576 42.6948 25.5953 42.6948C25.5636 42.6948 25.529 42.7058 25.4964 42.7088C25.4271 42.7147 25.3583 42.7189 25.2856 42.7379C25.2835 42.7384 25.2814 42.7379 25.2789 42.7388C25.2028 42.7591 25.1382 42.7772 25.0736 42.7958C24.4555 42.972 24.3191 43.0962 24.2316 43.6496C24.2101 43.7848 24.1987 43.9753 24.1923 44.1924C24.1906 44.2562 24.1894 44.3226 24.1885 44.3906C24.1813 44.3236 24.1749 44.2566 24.1695 44.1895C24.1277 43.6711 24.1315 43.108 24.1349 42.6433C24.1382 42.2217 24.1408 41.8575 24.1146 41.5948C24.0766 41.212 24.1091 40.6683 24.1881 40.1001C24.2077 39.9607 24.2295 39.8215 24.2536 39.6828C24.3757 38.9878 24.5577 38.3056 24.7588 37.8785C24.8484 37.6879 24.9075 37.4966 24.9519 37.3056C24.995 37.121 25.0241 36.9372 25.0524 36.7564L25.0765 36.6065C25.0959 36.4878 25.1171 36.3737 25.1428 36.2639C25.2155 35.9521 25.3291 35.6745 25.5792 35.4426C26.1014 34.9581 26.4529 34.8022 27.0257 34.8022C27.1753 34.8022 27.3434 34.8127 27.5563 34.8351ZM21.9161 47.7575C21.6192 47.9164 21.4679 47.9354 21.2394 47.736C21.2124 47.7001 21.1906 47.6605 21.1747 47.6185C21.1436 47.5425 21.116 47.4651 21.0919 47.3866C21.0661 47.3046 21.0421 47.2221 21.0201 47.139C20.9251 46.785 20.8402 46.3761 20.8233 46.1898C20.8123 46.0711 20.8292 45.78 21.2187 45.6427C21.2602 45.6274 21.3041 45.6192 21.3484 45.6186C21.4941 45.6186 21.5892 45.7255 21.6204 45.7665C21.6466 45.848 21.7286 46.0859 21.9474 46.6439C21.9567 46.668 21.9622 46.6866 21.9706 46.7094C22.0036 46.7969 22.0327 46.8792 22.0551 46.9519C22.0834 47.0453 22.1029 47.1255 22.116 47.1973C22.1827 47.5657 22.0632 47.6789 21.9161 47.7575ZM26.0815 46.0288C25.9877 46.2232 25.8479 46.3799 25.665 46.3799C25.5429 46.3799 25.4339 46.3769 25.3317 46.3719C25.3055 46.3706 25.2789 46.3698 25.2539 46.3676C25.2037 46.3642 25.1535 46.3591 25.1036 46.3524C25.0824 46.3499 25.0596 46.3478 25.0398 46.3444C24.9805 46.3349 24.9222 46.3205 24.8653 46.3013L24.8336 46.2891C24.7331 46.2489 24.6663 46.1923 24.641 46.1125C24.6316 46.0859 24.6266 46.0579 24.6262 46.0297L24.6249 45.8746C24.6241 45.7986 24.6232 45.7162 24.6215 45.6267L24.6211 45.5844C24.6108 45.2144 24.6071 44.8443 24.6101 44.4742C24.6127 44.162 24.6228 43.8819 24.649 43.7151C24.6988 43.4012 24.7145 43.3399 25.0736 43.2335C25.1335 43.2157 25.2041 43.1959 25.2852 43.1739L25.3874 43.1464C25.4263 43.1363 25.4597 43.1359 25.496 43.1308C25.529 43.1262 25.5644 43.1165 25.5949 43.1165C25.9362 43.1165 26.0642 43.4105 26.0938 43.4937C26.1094 43.6931 26.2133 45.0268 26.2184 45.4353L26.2188 45.4678C26.2188 45.5413 26.207 45.6317 26.1854 45.7259C26.1626 45.8273 26.128 45.9325 26.0815 46.0288ZM23.497 47.1141C23.4775 47.0387 23.4589 46.9631 23.4412 46.8873C23.3102 46.3127 23.1763 45.4982 23.1282 44.9427C23.2845 44.8248 23.5629 44.7298 23.7982 44.6719C23.867 45.1273 23.9891 45.5244 24.2016 45.7948C24.2029 45.8822 24.2037 45.9621 24.2037 46.0301C24.2037 46.3541 24.3748 46.5375 24.6067 46.6465C24.6756 46.679 24.7483 46.7056 24.826 46.7255C24.8775 46.739 24.9282 46.7529 24.9815 46.7618C24.9836 46.7956 24.9848 46.8298 24.9844 46.8666C24.9819 47.1602 24.8923 47.5353 24.6169 47.6451C24.4716 47.7034 24.3174 47.7339 24.1708 47.7339C23.9917 47.7339 23.6752 47.6861 23.5688 47.3659L23.5599 47.3355C23.5367 47.2623 23.5157 47.1885 23.497 47.1141ZM32.8826 40.501C32.8847 40.5047 32.8871 40.5083 32.8898 40.5116C32.5294 40.5226 32.1936 40.5289 31.9266 40.5323C31.7171 40.3376 31.5029 40.1482 31.284 39.9641C31.2765 39.9408 31.2689 39.9176 31.2612 39.8944C31.2609 39.8768 31.2602 39.8592 31.2591 39.8416C31.2578 39.8258 31.2548 39.8103 31.2502 39.7951C31.1645 39.51 30.9799 39.047 30.7509 38.581C31.0973 38.3896 31.551 38.0622 31.886 37.5342L32.0411 37.5253C32.3617 37.5076 32.4758 37.4983 32.6312 37.4345C32.3925 38.4141 32.4352 39.8188 32.8826 40.501ZM30.8388 39.8936C30.84 39.916 30.8396 39.9392 30.84 39.9624C30.84 40.0435 30.835 40.1263 30.8236 40.2028C30.8092 40.3017 30.7855 40.3891 30.7547 40.4478C30.734 40.4863 30.7108 40.5125 30.6841 40.5196C30.6532 40.5281 30.6212 40.5321 30.5891 40.5315C30.3517 40.5315 30.0331 40.3608 29.8739 40.1644C29.8487 40.1344 29.8269 40.1019 29.8088 40.0672C29.7397 39.937 29.6662 39.8092 29.5883 39.684C29.3758 39.3304 29.0353 38.7605 28.996 38.4399C28.9926 38.4129 28.9872 38.3846 28.9884 38.3613C28.9893 38.3427 28.9926 38.3246 28.9939 38.306C29.0046 38.1784 29.0278 38.0522 29.0632 37.9292C29.116 37.7462 29.1891 37.5916 29.2677 37.5059C29.3099 37.4598 29.353 37.4319 29.3952 37.4319C29.4147 37.4319 29.4375 37.437 29.4611 37.4471L29.4671 37.4505C29.478 37.4556 29.4907 37.4645 29.503 37.4721C29.5224 37.4847 29.5427 37.4999 29.5642 37.5185C29.5938 37.5443 29.6255 37.5756 29.658 37.6123C29.8109 37.783 29.9934 38.0618 30.1726 38.3846C30.2412 38.5086 30.3072 38.6341 30.3703 38.761C30.5642 39.1509 30.7374 39.5615 30.8388 39.8927V39.8936ZM29.3952 37.0091C29.3023 37.0091 29.2216 37.0386 29.1456 37.0792C29.0577 37.1267 28.9806 37.1918 28.9191 37.2706C28.7907 37.4328 28.6999 37.6499 28.6429 37.87C28.6157 37.9752 28.5952 38.082 28.5816 38.1898C28.5486 38.2659 28.5119 38.355 28.4722 38.4551C28.3923 38.5738 28.2817 38.7044 28.1575 38.7774C28.1174 38.8027 28.0732 38.8207 28.0269 38.8307C27.8309 38.8653 27.5284 38.7758 27.3062 38.6186C27.1723 38.5236 27.1284 38.4454 27.1233 38.4167C27.1094 38.3339 27.1233 38.2253 27.1613 38.0935C27.2188 37.8954 27.3358 37.6394 27.5162 37.3162C27.5669 37.2258 27.6214 37.1311 27.6822 37.0298C27.7439 36.9275 27.8123 36.8397 27.8841 36.7594C28.1406 36.4721 28.4498 36.326 28.7379 36.301C28.8106 36.2947 28.8811 36.2964 28.9496 36.3053C29.0252 36.3154 29.097 36.3344 29.1642 36.3627C29.1887 36.3728 29.2149 36.3796 29.2377 36.3919C29.4649 36.5161 29.5093 36.7945 29.5047 37.0205C29.4686 37.0131 29.432 37.0093 29.3952 37.0091Z" fill="url(#paint0_linear_114_4)"/>
<path d="M26.0101 56.5948C25.9894 56.5973 23.9405 56.8668 22.7623 56.3236C21.8654 55.9096 21.4814 56.0477 21.0374 56.2087C20.8173 56.2881 20.5892 56.3705 20.2513 56.4009C20.2236 56.4034 20.1968 56.4113 20.1722 56.4242C20.1476 56.437 20.1258 56.4546 20.1081 56.4759C20.0903 56.4972 20.0769 56.5218 20.0686 56.5483C20.0603 56.5748 20.0574 56.6026 20.0599 56.6303C20.0658 56.6857 20.093 56.7367 20.1358 56.7724C20.1786 56.8081 20.2337 56.8258 20.2893 56.8216C20.5627 56.7967 20.8316 56.735 21.0886 56.6383L21.1815 56.6058C21.5723 56.4638 21.8371 56.3726 22.5376 56.6869C22.5545 56.6945 22.5684 56.6987 22.5857 56.7072C23.2464 57.0122 24.1201 57.0878 24.8273 57.0878C25.5011 57.0878 26.0241 57.0189 26.0676 57.0126C26.123 57.005 26.1732 56.9758 26.2071 56.9313C26.241 56.8868 26.2558 56.8306 26.2484 56.7752C26.245 56.7475 26.2361 56.7208 26.2222 56.6966C26.2084 56.6724 26.1897 56.6513 26.1675 56.6344C26.1453 56.6176 26.1199 56.6054 26.0928 56.5986C26.0658 56.5918 26.0377 56.5905 26.0101 56.5948Z" fill="url(#paint1_linear_114_4)"/>
</g>
<defs>
<linearGradient id="paint0_linear_114_4" x1="14.6946" y1="37.9009" x2="1669.53" y2="809.564" gradientUnits="userSpaceOnUse">
<stop stop-color="#32142D"/>
<stop offset="1" stop-color="#32142D"/>
</linearGradient>
<linearGradient id="paint1_linear_114_4" x1="8.09547" y1="59.7643" x2="569.213" y2="321.417" gradientUnits="userSpaceOnUse">
<stop stop-color="#32142D"/>
<stop offset="1" stop-color="#32142D"/>
</linearGradient>
<clipPath id="clip0_114_4">
<rect width="126" height="126" fill="white" transform="translate(0 -11)"/>
</clipPath>
</defs>
</svg>
