<svg width="25" height="25" viewBox="0 0 25 25" fill="none" xmlns="http://www.w3.org/2000/svg">
<path d="M5.33441 18.5456C7.45069 17.3494 9.89562 16.6667 12.5 16.6667C15.1044 16.6667 17.5493 17.3494 19.6656 18.5456M15.625 10.4167C15.625 12.1426 14.2259 13.5417 12.5 13.5417C10.7741 13.5417 9.375 12.1426 9.375 10.4167C9.375 8.69078 10.7741 7.29167 12.5 7.29167C14.2259 7.29167 15.625 8.69078 15.625 10.4167ZM21.875 12.5C21.875 17.6777 17.6777 21.875 12.5 21.875C7.32233 21.875 3.125 17.6777 3.125 12.5C3.125 7.32233 7.32233 3.125 12.5 3.125C17.6777 3.125 21.875 7.32233 21.875 12.5Z" stroke="#545F71" stroke-width="2" stroke-linecap="round" stroke-linejoin="round"/>
</svg>
