<svg width="30" height="32" viewBox="0 0 30 32" fill="none" xmlns="http://www.w3.org/2000/svg">
<path d="M29.4013 31.6218H0.598694C0.566631 31.6218 0.53488 31.6155 0.505256 31.6032C0.475631 31.5909 0.448715 31.573 0.426046 31.5503C0.403377 31.5276 0.3854 31.5007 0.373144 31.4711C0.360887 31.4414 0.35459 31.4097 0.354614 31.3776V28.4485C0.354614 26.3538 1.43988 25.551 3.4422 24.8025C3.79785 24.67 4.2572 24.5322 4.74347 24.3864C6.8056 23.768 9.63007 22.9208 9.63007 21.1259C9.63007 20.991 9.73926 20.8818 9.87415 20.8818C10.009 20.8818 10.1182 20.991 10.1182 21.1259C10.1182 23.2841 7.0929 24.1914 4.88361 24.854C4.40521 24.9975 3.95349 25.1329 3.61316 25.2602C1.73621 25.9614 0.842835 26.6179 0.842835 28.4485V31.1335H29.1573V28.4485C29.1573 26.6179 28.2639 25.9614 26.3865 25.2602C26.0466 25.1329 25.5946 24.9974 25.1165 24.854C22.9073 24.1914 19.8818 23.2841 19.8818 21.1259C19.8818 21.0939 19.8881 21.0621 19.9004 21.0325C19.9126 21.0029 19.9306 20.976 19.9533 20.9533C19.976 20.9306 20.0029 20.9126 20.0325 20.9004C20.0621 20.8881 20.0939 20.8818 20.1259 20.8818C20.158 20.8818 20.1897 20.8881 20.2194 20.9004C20.249 20.9126 20.2759 20.9306 20.2986 20.9533C20.3212 20.9759 20.3392 21.0029 20.3515 21.0325C20.3637 21.0621 20.37 21.0939 20.37 21.1259C20.37 22.9208 23.1942 23.768 25.2566 24.3864C25.7429 24.5322 26.2024 24.67 26.5576 24.8025C28.5603 25.551 29.6454 26.3538 29.6454 28.4485V31.3776C29.6454 31.5126 29.5362 31.6218 29.4013 31.6218Z" fill="white"/>
<path d="M15 22.3463C11.6564 22.3463 6.82111 17.5059 6.26733 12.3652C6.26386 12.3334 6.26671 12.3011 6.27571 12.2704C6.28471 12.2396 6.29969 12.2109 6.3198 12.1859C6.3399 12.161 6.36473 12.1402 6.39286 12.1248C6.421 12.1095 6.45189 12.0998 6.48376 12.0964C6.62268 12.0845 6.73834 12.1791 6.75262 12.3128C7.00146 14.6216 8.18353 17.0606 9.99585 19.0038C11.6373 20.7644 13.5547 21.8581 14.9999 21.8581C16.5847 21.8581 18.7147 20.5508 20.4276 18.5276C20.4696 18.4784 20.5294 18.4478 20.5938 18.4425C20.6583 18.4371 20.7223 18.4574 20.7719 18.499C20.8212 18.5409 20.852 18.6006 20.8573 18.6652C20.8627 18.7297 20.8422 18.7937 20.8005 18.8432C18.9989 20.9713 16.722 22.3463 15 22.3463ZM21.9928 16.9762C21.9499 16.9763 21.9077 16.965 21.8705 16.9436C21.8334 16.9221 21.8025 16.8912 21.7811 16.854C21.7597 16.8169 21.7484 16.7747 21.7485 16.7318C21.7486 16.6888 21.76 16.6467 21.7816 16.6096C22.7747 14.8989 23.299 13.0844 23.299 11.3621C23.299 11.3301 23.3053 11.2983 23.3176 11.2687C23.3298 11.2391 23.3478 11.2121 23.3705 11.1895C23.3932 11.1668 23.4201 11.1488 23.4497 11.1366C23.4793 11.1243 23.5111 11.118 23.5432 11.118C23.5752 11.118 23.6069 11.1243 23.6366 11.1366C23.6662 11.1489 23.6931 11.1668 23.7158 11.1895C23.7384 11.2122 23.7564 11.2391 23.7686 11.2687C23.7809 11.2983 23.7872 11.3301 23.7872 11.3621C23.7872 13.1704 23.2399 15.0695 22.204 16.8546C22.1825 16.8916 22.1517 16.9224 22.1147 16.9437C22.0776 16.965 22.0356 16.9763 21.9928 16.9762Z" fill="white"/>
<path d="M9.87415 21.5734C9.84209 21.5734 9.81034 21.5671 9.78072 21.5549C9.7511 21.5426 9.72419 21.5246 9.70152 21.502C9.67885 21.4793 9.66087 21.4524 9.64861 21.4228C9.63635 21.3932 9.63005 21.3614 9.63007 21.3293V19.2308C9.63007 19.0958 9.73926 18.9867 9.87415 18.9867C10.009 18.9867 10.1182 19.0958 10.1182 19.2308V21.3293C10.1182 21.3614 10.1119 21.3932 10.0997 21.4228C10.0874 21.4524 10.0694 21.4793 10.0468 21.502C10.0241 21.5246 9.99719 21.5426 9.96757 21.5549C9.93795 21.5671 9.9062 21.5734 9.87415 21.5734ZM20.1259 21.3699C20.0938 21.3699 20.0621 21.3636 20.0324 21.3513C20.0028 21.3391 19.9759 21.3211 19.9532 21.2984C19.9306 21.2758 19.9126 21.2488 19.9003 21.2192C19.8881 21.1896 19.8818 21.1579 19.8818 21.1258V19.2313C19.8818 19.1992 19.8881 19.1675 19.9003 19.1378C19.9126 19.1082 19.9306 19.0813 19.9532 19.0586C19.9759 19.036 20.0028 19.018 20.0324 19.0057C20.0621 18.9935 20.0938 18.9872 20.1259 18.9872C20.1579 18.9872 20.1897 18.9935 20.2193 19.0057C20.2489 19.018 20.2758 19.036 20.2985 19.0586C20.3212 19.0813 20.3391 19.1082 20.3514 19.1378C20.3637 19.1675 20.37 19.1992 20.3699 19.2313V21.1258C20.37 21.1579 20.3637 21.1896 20.3514 21.2192C20.3391 21.2489 20.3212 21.2758 20.2985 21.2984C20.2758 21.3211 20.2489 21.3391 20.2193 21.3513C20.1897 21.3636 20.1579 21.3699 20.1259 21.3699ZM10.8502 30.6625C10.8235 30.6625 10.7966 30.6582 10.7699 30.6486C10.7088 30.6273 10.6586 30.5826 10.6305 30.5243C10.6023 30.466 10.5985 30.3989 10.6198 30.3378C10.7475 29.9719 10.9207 29.6236 11.1353 29.3009C11.9982 28.0032 13.443 27.228 15 27.228C15.3466 27.228 15.6918 27.2662 16.026 27.3419C16.0892 27.3561 16.1442 27.3948 16.1789 27.4495C16.2136 27.5043 16.2251 27.5705 16.2109 27.6337C16.1814 27.7653 16.0498 27.8487 15.9192 27.8178C15.6175 27.7502 15.3092 27.7161 15 27.7162C13.6068 27.7162 12.3141 28.4099 11.542 29.5712C11.35 29.8599 11.195 30.1716 11.0808 30.499C11.064 30.5468 11.0329 30.5882 10.9916 30.6175C10.9502 30.6468 10.9009 30.6625 10.8502 30.6625ZM19.1495 30.6625C19.0989 30.6625 19.0495 30.6468 19.0081 30.6175C18.9668 30.5882 18.9356 30.5468 18.9188 30.499C18.8049 30.1716 18.6498 29.86 18.4573 29.5717C18.2618 29.2775 18.0299 29.0092 17.767 28.7732C17.743 28.7518 17.7236 28.726 17.7097 28.6971C17.6958 28.6682 17.6877 28.6368 17.6859 28.6048C17.6841 28.5728 17.6887 28.5407 17.6994 28.5105C17.71 28.4802 17.7265 28.4524 17.7479 28.4285C17.838 28.3289 17.993 28.3203 18.0921 28.4099C18.3862 28.6731 18.6457 28.9725 18.8644 29.301C19.0788 29.6238 19.252 29.9721 19.3802 30.3378C19.393 30.3746 19.3968 30.414 19.3913 30.4526C19.3858 30.4911 19.3711 30.5278 19.3486 30.5596C19.326 30.5914 19.2961 30.6173 19.2615 30.6352C19.2269 30.6531 19.1885 30.6624 19.1495 30.6625ZM14.5118 30.6453C14.4635 30.6454 14.4163 30.6311 14.3762 30.6043C14.336 30.5774 14.3047 30.5393 14.2862 30.4947C14.2677 30.4501 14.2629 30.401 14.2723 30.3536C14.2818 30.3063 14.3051 30.2628 14.3392 30.2286L18.7329 25.8351C18.7555 25.8124 18.7824 25.7944 18.812 25.7822C18.8416 25.7699 18.8734 25.7636 18.9054 25.7636C18.9375 25.7636 18.9692 25.7699 18.9988 25.7822C19.0284 25.7944 19.0553 25.8124 19.078 25.8351C19.1006 25.8577 19.1186 25.8846 19.1309 25.9142C19.1431 25.9438 19.1495 25.9756 19.1495 26.0076C19.1495 26.0397 19.1432 26.0714 19.1309 26.101C19.1186 26.1306 19.1007 26.1575 19.078 26.1802L14.6844 30.5738C14.6618 30.5965 14.6349 30.6145 14.6053 30.6268C14.5756 30.6391 14.5439 30.6454 14.5118 30.6453ZM24.5195 10.3859C24.4875 10.3859 24.4557 10.3796 24.4261 10.3673C24.3965 10.355 24.3696 10.3371 24.3469 10.3144C24.3242 10.2917 24.3062 10.2648 24.294 10.2352C24.2817 10.2055 24.2754 10.1738 24.2755 10.1417C24.2755 5.02734 20.1144 0.866333 15 0.866333C9.88556 0.866333 5.72461 5.02735 5.72461 10.1418C5.72461 10.2767 5.61542 10.3859 5.48047 10.3859C5.44841 10.3859 5.41665 10.3796 5.38703 10.3674C5.35741 10.3551 5.33049 10.3371 5.30782 10.3145C5.28515 10.2918 5.26718 10.2649 5.25492 10.2352C5.24266 10.2056 5.23637 10.1738 5.23639 10.1418C5.23639 4.75818 9.61646 0.378174 15 0.378174C20.3833 0.378174 24.7636 4.75824 24.7636 10.1418C24.7636 10.1738 24.7573 10.2056 24.7451 10.2352C24.7328 10.2648 24.7148 10.2917 24.6922 10.3144C24.6695 10.3371 24.6426 10.3551 24.613 10.3673C24.5833 10.3796 24.5516 10.3859 24.5195 10.3859Z" fill="white"/>
<path d="M5.48047 23.5668C5.44841 23.5668 5.41666 23.5605 5.38703 23.5482C5.35741 23.536 5.33049 23.518 5.30782 23.4953C5.28515 23.4726 5.26718 23.4457 5.25492 23.4161C5.24266 23.3864 5.23637 23.3547 5.23639 23.3226V10.1418C5.23637 10.1097 5.24268 10.078 5.25494 10.0484C5.2672 10.0187 5.28518 9.99183 5.30784 9.96916C5.33051 9.94649 5.35742 9.92851 5.38704 9.91625C5.41666 9.90399 5.44841 9.89769 5.48047 9.89771C5.61542 9.89771 5.72461 10.0069 5.72461 10.1418V23.3226C5.72461 23.4576 5.61542 23.5668 5.48047 23.5668Z" fill="white"/>
<path d="M24.5195 23.5668C24.4875 23.5668 24.4557 23.5605 24.4261 23.5482C24.3965 23.536 24.3696 23.518 24.3469 23.4953C24.3242 23.4726 24.3062 23.4457 24.294 23.4161C24.2817 23.3864 24.2754 23.3547 24.2755 23.3226V10.1418C24.2755 10.0069 24.3846 9.89771 24.5195 9.89771C24.6545 9.89771 24.7636 10.0069 24.7636 10.1418V23.3226C24.7636 23.4576 24.6545 23.5668 24.5195 23.5668Z" fill="white"/>
<path d="M5.52985 11.8454L5.43115 11.3672C13.9071 9.61835 20.8601 2.7323 20.9296 2.66296L21.2748 3.00763C21.2048 3.07819 14.1517 10.0662 5.52985 11.8454Z" fill="white"/>
<path d="M24.4261 10.9031C19.8522 9.23718 16.5208 6.69946 16.4879 6.67395L16.7854 6.28687C16.8178 6.31189 20.0935 8.80524 24.593 10.4445L24.4261 10.9031Z" fill="white"/>
<path d="M17.8071 18.929C17.7477 18.9289 17.6904 18.9072 17.6458 18.868C17.6013 18.8288 17.5725 18.7747 17.5648 18.7159C17.5608 18.684 17.563 18.6517 17.5715 18.6207C17.5799 18.5898 17.5944 18.5608 17.6141 18.5354C17.6337 18.5101 17.6582 18.4888 17.6861 18.4729C17.714 18.457 17.7447 18.4468 17.7766 18.4427C17.8218 18.437 22.3456 17.8397 23.402 15.859C23.7138 15.2759 23.6881 14.639 23.3248 13.9122C23.2959 13.8543 23.2911 13.7873 23.3116 13.7259C23.3321 13.6645 23.3761 13.6137 23.434 13.5847C23.4919 13.5559 23.5589 13.5512 23.6203 13.5716C23.6817 13.5921 23.7324 13.6361 23.7615 13.6939C24.1948 14.5606 24.2186 15.3665 23.8329 16.0893C22.6573 18.2916 18.0339 18.9023 17.8375 18.9271C17.8274 18.9284 17.8173 18.9291 17.8071 18.929Z" fill="white"/>
<path d="M17.0137 19.4172C16.4321 19.4172 15.9764 19.0954 15.9764 18.6849C15.9764 18.2744 16.4321 17.9526 17.0137 17.9526C17.5953 17.9526 18.0511 18.2744 18.0511 18.6849C18.0511 19.0954 17.5953 19.4172 17.0137 19.4172ZM17.0137 18.4409C16.6733 18.4409 16.4645 18.5986 16.4645 18.6849C16.4645 18.7712 16.6733 18.929 17.0137 18.929C17.3541 18.929 17.5629 18.7712 17.5629 18.6849C17.5629 18.5986 17.3541 18.4409 17.0137 18.4409Z" fill="white"/>
<path d="M15 25.2754C10.2617 25.2754 9.04699 22.7992 8.99762 22.6938C8.98399 22.6648 8.97623 22.6334 8.97476 22.6014C8.97329 22.5693 8.97815 22.5373 8.98907 22.5072C8.99998 22.477 9.01673 22.4493 9.03836 22.4257C9.05998 22.402 9.08607 22.3828 9.11511 22.3693C9.23645 22.312 9.38165 22.3645 9.43908 22.486C9.45123 22.5108 10.5969 24.7872 15 24.7872C19.4213 24.7872 20.3785 22.5227 20.3871 22.4998C20.4372 22.3749 20.5798 22.3134 20.7046 22.3639C20.7647 22.388 20.8127 22.4349 20.8383 22.4943C20.8638 22.5537 20.8648 22.6208 20.841 22.681C20.7981 22.7868 19.7483 25.2754 15 25.2754Z" fill="white"/>
</svg>
