<svg width="547" height="225" viewBox="0 0 547 225" fill="none" xmlns="http://www.w3.org/2000/svg">
<g clip-path="url(#clip0_222_190)">
<path d="M547 0H0V225H547V0Z" fill="#F5EEF0"/>
<path d="M296.292 225C281.958 213.709 267.625 202.459 302.167 200.986C336.658 199.514 420.076 207.859 423.57 200.414C427.015 192.968 350.536 169.732 331.036 158.85C311.537 147.968 349.067 149.441 378.848 153.695C408.579 157.95 430.661 165.027 435.726 162.941C440.74 160.895 428.787 149.686 411.668 128.168C394.498 106.609 372.213 74.7 380.773 73.4318C389.282 72.1636 428.686 101.536 440.234 100.105C451.832 98.6318 435.473 66.3545 438.005 57.2727C440.538 48.1909 461.911 62.3045 478.372 78.8727C494.883 95.4409 506.431 114.505 512.103 110.618C517.776 106.691 517.573 79.8545 522.385 61.3227C527.247 42.8318 537.124 32.6455 547 22.5V225H296.292Z" fill="#F6CBCA"/>
<path d="M379.861 225C370.289 217.473 360.716 209.945 383.761 209.005C406.806 208.023 462.418 213.586 464.697 208.636C467.027 203.645 416.024 188.141 403.058 180.9C390.041 173.659 415.011 174.641 434.865 177.464C454.719 180.327 469.458 185.032 472.8 183.641C476.194 182.25 468.191 174.805 456.796 160.445C445.349 146.086 430.459 124.814 436.182 123.955C441.854 123.095 468.141 142.691 475.839 141.709C483.538 140.768 472.649 119.25 474.371 113.195C476.042 107.141 490.274 116.55 501.265 127.595C512.255 138.641 519.954 151.323 523.752 148.745C527.5 146.127 527.349 128.25 530.59 115.895C533.831 103.541 540.416 96.7909 547 90V225H379.861Z" fill="#D36468"/>
<path d="M463.431 225C458.67 221.236 453.858 217.473 465.406 216.982C476.903 216.491 504.709 219.273 505.874 216.818C506.988 214.323 481.512 206.591 475.029 202.95C468.495 199.309 481.005 199.8 490.932 201.232C500.86 202.664 508.204 204.995 509.926 204.3C511.597 203.645 507.596 199.882 501.872 192.723C496.149 185.523 488.755 174.886 491.591 174.477C494.427 174.068 507.545 183.845 511.394 183.355C515.294 182.864 509.824 172.105 510.685 169.077C511.496 166.05 518.637 170.755 524.107 176.277C529.628 181.8 533.477 188.182 535.351 186.873C537.276 185.564 537.174 176.605 538.795 170.427C540.416 164.291 543.708 160.895 547 157.5V225H463.431Z" fill="#BB253C"/>
<path d="M250.708 0C195.654 3.15 140.599 6.34091 143.284 14.0727C145.968 21.7636 206.391 34.0364 235.565 46.8818C264.738 59.7273 262.661 73.1455 234.4 71.7955C206.138 70.4864 151.641 54.45 152.502 64.6364C153.312 74.8636 209.43 111.314 205.48 114.586C201.58 117.818 137.662 87.8727 111.477 79.7727C85.2915 71.6727 96.8393 85.4182 93.6991 85.4182C90.5589 85.4591 72.6801 71.6727 76.8332 89.8773C80.9864 108.082 107.171 158.277 101.448 156.109C95.725 153.982 58.1441 99.5318 46.495 99.0818C34.8966 98.5909 49.2807 152.1 47.4067 155.291C45.482 158.523 27.2994 111.395 16.6632 110.864C6.02713 110.332 3.03889 156.436 0 202.5V0H250.708Z" fill="#F6CBCA"/>
<path d="M167.139 0C130.419 2.12727 93.7497 4.21364 95.5224 9.36818C97.2951 14.5227 137.56 22.7045 157.06 31.2545C176.509 39.8045 175.141 48.7636 156.3 47.8636C137.408 47.0045 101.094 36.2864 101.651 43.0773C102.208 49.9091 139.586 74.2091 137.003 76.3773C134.37 78.5455 91.7744 58.5818 74.3008 53.1818C56.8272 47.7818 64.5764 56.9455 62.4492 56.9455C60.3726 56.9455 48.4703 47.7818 51.2053 59.9318C53.9909 72.0818 71.4139 105.505 67.6153 104.073C63.8167 102.641 38.7458 66.3545 30.9967 66.0273C23.2475 65.7409 32.8706 101.414 31.6044 103.541C30.3382 105.668 18.1827 74.25 11.0919 73.9227C4.05185 73.5545 2.02593 104.277 0 135V0H167.139Z" fill="#D36468"/>
<path d="M83.5694 0C65.2348 1.06364 46.8495 2.12727 47.7612 4.70455C48.6729 7.24091 68.7802 11.3318 78.5046 15.6273C88.2291 19.9227 87.5706 24.3818 78.1501 23.9318C68.7295 23.4818 50.5469 18.1636 50.8507 21.5591C51.104 24.9545 69.7931 37.1045 68.4763 38.2091C67.2101 39.2727 45.8872 29.2909 37.1757 26.5909C28.4136 23.8909 32.2629 28.4727 31.2499 28.4727C30.1863 28.4727 24.2098 23.8909 25.628 29.9455C26.9955 36.0409 35.7069 52.7727 33.833 52.0364C31.9083 51.3409 19.3982 33.1773 15.4983 33.0136C11.6491 32.85 16.41 50.6864 15.8022 51.75C15.1438 52.8545 9.11667 37.1455 5.5713 36.9409C2.02593 36.7773 1.01296 52.1591 0 67.5V0H83.5694Z" fill="#BB253C"/>
</g>
<defs>
<clipPath id="clip0_222_190">
<rect width="547" height="225" rx="15" fill="white"/>
</clipPath>
</defs>
</svg>
