<svg width="32" height="32" viewBox="0 0 32 32" fill="none" xmlns="http://www.w3.org/2000/svg">
<path fill-rule="evenodd" clip-rule="evenodd" d="M2.66669 8.00008C2.66669 5.05456 5.0545 2.66675 8.00002 2.66675H24C26.9455 2.66675 29.3334 5.05456 29.3334 8.00008V24.0001C29.3334 26.9455 26.9455 29.3334 24 29.3334H8.00002C5.0545 29.3334 2.66669 26.9455 2.66669 24.0001V8.00008ZM8.00002 5.33341C6.52726 5.33341 5.33335 6.52732 5.33335 8.00008V24.0001C5.33335 25.4729 6.52726 26.6667 8.00002 26.6667H16V17.3334H14.6667C13.9303 17.3334 13.3334 16.7365 13.3334 16.0001C13.3334 15.2637 13.9303 14.6667 14.6667 14.6667H16V12.6667C16 10.0894 18.0894 8.00008 20.6667 8.00008H21.4667C22.2031 8.00008 22.8 8.59704 22.8 9.33341C22.8 10.0698 22.2031 10.6667 21.4667 10.6667H20.6667C19.5622 10.6667 18.6667 11.5622 18.6667 12.6667V14.6667H21.4667C22.2031 14.6667 22.8 15.2637 22.8 16.0001C22.8 16.7365 22.2031 17.3334 21.4667 17.3334H18.6667V26.6667H24C25.4728 26.6667 26.6667 25.4729 26.6667 24.0001V8.00008C26.6667 6.52732 25.4728 5.33341 24 5.33341H8.00002Z" fill="black"/>
</svg>
