<svg width="25" height="25" viewBox="0 0 25 25" fill="none" xmlns="http://www.w3.org/2000/svg">
<path d="M20.4278 18.4583C20.688 18.7206 20.834 19.075 20.834 19.4444C20.834 19.8139 20.688 20.1683 20.4278 20.4306C20.1645 20.6888 19.8104 20.8334 19.4417 20.8334C19.0729 20.8334 18.7188 20.6888 18.4556 20.4306L12.5 14.4722L6.54444 20.4306C6.28116 20.6888 5.9271 20.8334 5.55833 20.8334C5.18956 20.8334 4.8355 20.6888 4.57222 20.4306C4.31201 20.1683 4.16599 19.8139 4.16599 19.4444C4.16599 19.075 4.31201 18.7206 4.57222 18.4583L10.5278 12.5L4.57222 6.54444C4.31069 6.28291 4.16376 5.92819 4.16376 5.55833C4.16376 5.18847 4.31069 4.83375 4.57222 4.57222C4.83375 4.31069 5.18847 4.16376 5.55833 4.16376C5.92819 4.16376 6.28291 4.31069 6.54444 4.57222L12.5 10.5306L18.4556 4.57222C18.7171 4.31069 19.0718 4.16376 19.4417 4.16376C19.8115 4.16376 20.1662 4.31069 20.4278 4.57222C20.6893 4.83375 20.8362 5.18847 20.8362 5.55833C20.8362 5.92819 20.6893 6.28291 20.4278 6.54444L14.4694 12.5L20.4278 18.4583Z" fill="#494C4E"/>
</svg>
