<svg width="362" height="161" viewBox="0 0 362 161" fill="none" xmlns="http://www.w3.org/2000/svg">
<g clip-path="url(#clip0_222_200)">
<path d="M362 160.688H0L0 0.792206H362V160.688Z" fill="#F5EEF0"/>
<path d="M174.518 165.006C182.625 174.395 190.703 183.783 191.76 161.158C192.818 138.566 186.826 83.9278 192.171 81.6387C197.517 79.3828 214.202 129.476 222.015 142.249C229.828 155.021 228.771 130.439 225.716 110.932C222.661 91.4584 217.579 76.9943 219.078 73.6768C220.546 70.3925 228.595 78.2217 244.045 89.4347C259.525 100.681 282.436 115.278 283.347 109.671C284.257 104.098 263.167 78.2881 264.195 70.7243C265.253 63.1273 288.428 73.8427 294.949 72.184C301.47 70.5252 291.336 56.5255 279.44 45.7438C267.544 34.9289 253.856 27.3651 256.646 23.6495C259.466 19.934 278.735 20.0667 292.041 16.9151C305.318 13.7303 312.632 7.26128 319.916 0.792221H174.518V165.006Z" fill="#F6CBCA"/>
<path d="M174.518 110.268C179.923 116.538 185.328 122.808 186.003 107.714C186.708 92.6195 182.713 56.1938 186.267 54.701C189.851 53.1749 200.984 86.5817 206.183 95.0744C211.382 103.6 210.677 87.2452 208.65 74.2408C206.594 61.2363 203.216 51.5825 204.215 49.393C205.213 47.1703 210.559 52.4119 220.869 59.8762C231.179 67.3736 246.454 77.127 247.07 73.3783C247.687 69.6627 233.617 52.4451 234.322 47.4025C234.998 42.36 250.448 49.4925 254.796 48.3646C259.143 47.2698 252.387 37.9478 244.456 30.7489C236.525 23.55 227.42 18.5075 229.27 16.0194C231.15 13.5644 243.986 13.664 252.857 11.5408C261.728 9.41763 266.574 5.10493 271.45 0.792229H174.518V110.268Z" fill="#D36468"/>
<path d="M174.518 55.5303C177.22 58.6487 179.923 61.8003 180.275 54.2365C180.628 46.7059 178.63 28.493 180.393 27.73C182.185 27.0002 187.736 43.687 190.35 47.9333C192.965 52.2129 192.612 44.0187 191.584 37.5165C190.556 31.0143 188.882 26.204 189.381 25.076C189.851 23.9813 192.553 26.6021 197.694 30.3508C202.863 34.0995 210.5 38.943 210.794 37.0853C211.088 35.2275 204.068 26.6353 204.42 24.114C204.773 21.5595 212.498 25.1424 214.672 24.5784C216.845 24.0476 213.467 19.37 209.502 15.7872C205.536 12.1711 200.954 9.64986 201.894 8.4224C202.834 7.16176 209.267 7.22811 213.702 6.16652C218.108 5.10494 220.546 2.94859 222.984 0.79224H174.518V55.5303Z" fill="#BB253C"/>
<path d="M8.84395 0.792221C45.2786 3.03077 81.7132 5.29838 79.9367 10.793C78.1602 16.2585 38.1727 24.9801 18.866 34.1088C-0.440689 43.2374 0.933578 52.773 19.6369 51.8136C38.3402 50.8833 74.4062 39.4871 73.8364 46.726C73.3001 53.994 36.1615 79.8972 38.776 82.2229C41.3569 84.5196 83.6573 63.2389 100.986 57.4827C118.315 51.7264 110.673 61.4946 112.751 61.4946C114.83 61.5237 126.662 51.7264 123.913 64.6634C121.165 77.6005 103.835 113.272 107.623 111.731C111.411 110.219 136.281 71.5244 143.991 71.2047C151.666 70.8558 142.147 108.882 143.387 111.15C144.661 113.446 156.694 79.9553 163.733 79.5774C170.772 79.1995 172.75 111.964 174.761 144.699L174.761 0.792221L8.84395 0.792221Z" fill="#F6CBCA"/>
<path d="M64.1495 0.792221C88.4504 2.30397 112.718 3.78664 111.545 7.44971C110.372 11.1128 83.7243 16.9272 70.8197 23.0032C57.9486 29.0793 58.8536 35.4461 71.3225 34.8065C83.8249 34.196 107.858 26.5791 107.489 31.4051C107.12 36.2601 82.3836 53.5289 84.093 55.0697C85.836 56.6105 114.025 42.4234 125.589 38.5858C137.153 34.7483 132.025 41.2605 133.432 41.2605C134.807 41.2605 142.683 34.7483 140.873 43.3827C139.03 52.0171 127.5 75.769 130.013 74.7514C132.527 73.7339 149.119 47.947 154.247 47.7145C159.376 47.511 153.007 72.8618 153.845 74.3735C154.683 75.8852 162.727 53.5579 167.42 53.3254C172.079 53.0637 173.42 74.8968 174.761 96.7299V0.792221L64.1495 0.792221Z" fill="#D36468"/>
<path d="M119.455 0.792221C131.589 1.54809 143.756 2.30397 143.153 4.1355C142.549 5.93797 129.242 8.84517 122.807 11.8977C116.371 14.9503 116.807 18.1191 123.042 17.7994C129.276 17.4796 141.309 13.7002 141.108 16.1132C140.94 18.5262 128.572 27.1605 129.444 27.9455C130.282 28.7014 144.393 21.6078 150.158 19.689C155.957 17.7703 153.409 21.0263 154.08 21.0263C154.784 21.0263 158.739 17.7703 157.8 22.0729C156.895 26.4047 151.13 38.2951 152.37 37.7718C153.644 37.2776 161.923 24.3696 164.504 24.2533C167.051 24.1371 163.901 36.8125 164.303 37.5683C164.739 38.3533 168.727 27.1896 171.074 27.0443C173.42 26.928 174.09 37.859 174.761 48.7611V0.792221L119.455 0.792221Z" fill="#BB253C"/>
</g>
<defs>
<clipPath id="clip0_222_200">
<rect width="362" height="159.896" rx="15" transform="matrix(1 0 0 -1 0 160.688)" fill="white"/>
</clipPath>
</defs>
</svg>
