<svg width="100" height="204" viewBox="0 0 100 204" fill="none" xmlns="http://www.w3.org/2000/svg">
<path d="M98.3155 36.1089C98.1396 35.3362 97.9869 34.6884 97.899 34.1932C97.7648 33.4621 97.6538 31.6852 97.5219 29.6261C97.1008 22.9697 96.4669 12.9099 93.864 8.13456C90.7244 2.37357 87.5246 -1.05295 81.1528 0.291277C79.6952 0.596679 77.5666 0.538838 75.5006 0.416214C74.4941 0.358373 73.4923 0.298219 72.5229 0.298219C69.9941 0.298219 66.829 0.668403 64.7953 3.5489C64.0966 4.53683 63.5922 5.48311 63.1595 6.40395C62.1577 5.86255 60.8459 5.4808 59.1569 5.30265C57.9075 5.17077 56.9057 5.11062 56.0057 5.11062C52.2761 5.11062 49.7913 6.19109 46.5105 9.23817C45.3242 10.3468 44.4314 11.7324 43.9123 13.2709C41.0896 10.3163 37.0407 7.91476 32.5754 8.66439C27.7074 9.47648 25.4516 13.2408 23.6424 16.267C23.3717 16.7182 23.1102 17.1578 22.8465 17.5696C21.5693 19.5779 21.2755 23.4209 21.4421 27.4582C20.0373 26.941 18.5401 26.7227 17.0461 26.8173C13.5571 27.0232 11.845 28.3952 10.4245 30.1906C10.2058 30.2043 9.99554 30.2796 9.81786 30.4078C9.64019 30.5359 9.50238 30.7117 9.42033 30.9148C9.381 31.0166 9.1936 31.514 8.9229 32.2567C8.65683 32.6385 8.39307 33.0202 8.08536 33.4297C7.26632 34.5195 6.95167 36.1598 6.92853 38.0293C5.22106 43.2604 3.22669 50.2106 3.01152 54.75C2.85419 58.0562 2.34981 63.7825 1.81305 69.8466C1.0773 78.192 0.242077 87.6525 0.0269073 93.8924C-0.21834 101.012 1.2624 109.438 2.45393 116.21C3.08556 119.798 3.62926 122.896 3.75883 124.935C3.91615 127.44 3.50895 133.777 3.08093 140.489C2.5002 149.582 1.8385 159.887 2.26884 164.834C2.35444 165.805 2.42848 166.858 2.50714 167.973C3.12489 176.636 4.05729 189.726 12.2037 199.916C13.9366 202.081 16.8286 203.224 20.5698 203.224C30.2131 203.224 44.6873 195.781 54.2358 185.913C59.113 180.872 64.8624 173.003 64.5709 164.123C64.3002 155.873 63.7403 149.487 63.2868 144.358C62.5973 136.512 62.1809 131.778 63.5089 128.215C63.5832 127.971 63.7016 127.742 63.8583 127.54C64.5061 126.892 65.3135 126.478 66.3316 125.953C70.0588 124.037 75.6903 121.138 84.6418 102.592C85.5025 101.118 86.4187 99.658 87.321 98.2166C90.6157 92.9577 93.7298 87.988 93.7298 83.3121C93.7298 81.3686 93.4429 78.2891 93.0357 74.6937C93.9473 72.0376 97.5797 61.337 99.2826 54.5256C100.983 47.7188 99.2479 40.1671 98.3155 36.1089ZM97.0337 53.9634C95.8931 58.5352 93.864 64.8954 92.3949 69.3353L92.1542 67.371C91.5342 62.3573 90.8956 57.1701 90.6504 53.6048C90.2779 48.2024 88.029 44.3293 85.1022 41.0833C87.1197 41.0416 89.4773 40.9769 91.7864 40.8681C92.0776 40.8398 92.3473 40.7024 92.5415 40.4835C92.7356 40.2645 92.8398 39.9803 92.833 39.6877C92.8263 39.3952 92.7092 39.1161 92.5052 38.9063C92.3012 38.6965 92.0254 38.5717 91.7331 38.5568C91.5018 38.5568 90.7984 38.5568 90.0187 37.3676C87.7745 33.9457 87.6195 24.8831 89.7203 20.0522C89.8169 19.8346 89.8438 19.5925 89.7972 19.3591C89.7507 19.1256 89.633 18.9123 89.4603 18.7485C89.2876 18.5847 89.0684 18.4784 88.8328 18.4442C88.5972 18.41 88.3568 18.4496 88.1447 18.5576L87.0526 19.1128C85.4955 19.9111 85.4955 19.9111 83.3485 20.029L81.8816 20.1147C81.6914 20.1265 81.5071 20.1853 81.3451 20.2858C81.1832 20.3863 81.0488 20.5255 80.9538 20.6908C79.3782 23.4116 77.0762 25.0844 75.3386 26.0538C74.2188 24.0108 72.9879 22.1437 71.8056 20.9476C72.0416 19.1938 72.1041 15.6724 69.2306 14.1038C68.6972 13.8204 68.1284 13.6095 67.5393 13.4768C67.1435 13.3808 66.7402 13.3189 66.3339 13.2917C65.9554 13.2763 65.5763 13.291 65.2002 13.3357C64.4665 13.3922 63.7437 13.5463 63.0508 13.7938C63.3053 13.0626 63.5343 12.3246 63.7541 11.568C63.849 11.2441 63.9508 10.9133 64.0503 10.5847C64.1613 10.2145 64.2886 9.84204 64.4158 9.46491C64.5709 9.00681 64.7444 8.54408 64.9434 8.06978C65.376 7.04483 65.9128 5.99443 66.6925 4.88851C67.8308 3.27589 69.5244 2.6165 72.5298 2.6165C73.4553 2.6165 74.4108 2.67434 75.3733 2.72987C77.6499 2.86406 79.9567 2.91265 81.6387 2.55866C86.2081 1.59386 88.4501 3.02833 91.8396 9.24511C94.1995 13.5716 94.8404 23.7147 95.2221 29.7765C95.3679 32.0809 95.472 33.7467 95.6317 34.612C95.7265 35.1326 95.8815 35.8151 96.0689 36.6295C96.9504 40.4956 98.6047 47.6957 97.0337 53.9634ZM85.3567 96.9881C84.5007 98.3508 83.6446 99.7367 82.821 101.13L82.7793 101.081C82.7053 101.236 82.6544 101.375 82.5803 101.532C73.9504 119.431 68.7262 122.114 65.2696 123.894C64.1637 124.46 63.1225 124.997 62.2109 125.909C61.8593 126.265 61.5724 126.758 61.3317 127.408C59.8256 131.457 60.2582 136.387 60.9778 144.554C61.4266 149.658 61.9865 156.007 62.2526 164.195C62.5187 172.263 57.1325 179.581 52.5676 184.298C43.4056 193.766 29.6463 200.906 20.5629 200.906C17.5065 200.906 15.2993 200.084 14.0037 198.465C6.30847 188.84 5.44085 176.682 4.80923 167.804C4.72825 166.675 4.65421 165.613 4.56861 164.63C4.15215 159.855 4.80691 149.64 5.38533 140.631C5.8388 133.551 6.22981 127.438 6.06322 124.784C5.92672 122.616 5.37144 119.461 4.72825 115.803C3.55754 109.137 2.09763 100.843 2.33362 93.9665C2.54879 87.789 3.37939 78.3609 4.11281 70.0456C4.64958 63.9584 5.15627 58.2066 5.31823 54.8565C5.45936 51.9274 6.42416 47.816 7.55553 43.8689C8.5666 48.9405 10.4083 53.7367 10.443 53.8223C11.4124 56.321 12.4813 59.3681 13.5132 62.318C14.5497 65.2772 15.5261 68.0744 16.315 70.0433C17.3215 72.5536 19.0428 75.0547 21.1251 76.4845C21.5948 78.0578 22.157 79.4437 22.7771 79.985C23.4966 80.612 24.51 81.3362 25.9745 81.3362C26.9301 81.3362 27.955 81.0354 29.1118 80.4154C31.7008 79.0272 31.8882 76.6788 31.2311 74.0852C31.481 74.2773 31.7332 74.467 32.0247 74.5896C32.89 74.9621 33.6813 75.2397 34.4448 75.4757C34.5906 76.0333 34.734 76.5423 34.8775 76.968C35.6294 79.2192 37.6816 80.5635 40.3701 80.5635C41.4644 80.5635 42.605 80.3367 43.6716 79.911C46.3786 78.8282 47.2347 75.6169 47.1421 73.1251C47.6465 73.139 48.13 73.1459 48.5511 73.1459C51.9082 73.1459 53.5162 69.4001 53.8332 66.7764C55.2351 65.408 56.3264 63.7542 57.033 61.927C57.9885 59.4699 58.0787 57.4292 58.1667 55.4557C58.2708 53.1073 58.368 50.8909 59.8024 47.735C60.3531 46.5227 60.8991 45.4214 61.4312 44.3594C61.7575 46.252 62.3451 48.1006 63.3446 49.7988C67.8933 57.531 67.803 57.9429 67.2038 60.6151C67.0881 61.1311 66.9586 61.7188 66.8336 62.4267C66.6855 63.2666 66.3385 64.4581 65.9359 65.8417C64.8277 69.65 63.3122 74.8672 63.4464 80.5588C63.4567 80.8647 63.5865 81.1543 63.808 81.3654C64.0295 81.5765 64.325 81.6923 64.631 81.6879C64.902 81.6775 65.1604 81.5708 65.3598 81.3871C65.4872 81.2786 65.5892 81.1434 65.6583 80.991C65.7275 80.8387 65.7623 80.6729 65.7601 80.5056C65.6328 75.1703 67.0927 70.152 68.157 66.4872C68.5781 65.0412 68.9414 63.7918 69.1103 62.8293C69.2282 62.1607 69.3509 61.6077 69.4619 61.1218C70.237 57.6467 70.0403 56.6218 65.3367 48.6281C63.9647 46.2959 63.4626 43.589 63.4534 40.8635C63.4511 40.683 63.4603 40.5049 63.4626 40.3244C63.4672 40.0907 63.4649 39.8594 63.4765 39.6257C63.4973 39.2208 63.532 38.8205 63.5714 38.418C63.6246 37.8465 63.694 37.2843 63.7796 36.7244C64.0679 34.8867 64.4933 33.0731 65.0521 31.2989L65.1261 31.0559C65.1979 30.8269 65.2696 30.5932 65.3413 30.3757C65.5727 30.8916 65.8341 31.4284 66.128 31.9837C66.3223 32.3539 66.5282 32.7287 66.7457 33.1128C67.1552 33.8346 67.5925 34.5819 68.0552 35.3524L68.2889 35.7434C68.6568 36.3565 68.983 36.9048 69.1773 37.2958C69.3046 37.5457 69.4596 37.7933 69.6354 38.0316C70.1861 38.7766 70.9589 39.4498 71.8334 39.9774C72.3424 40.2828 72.8838 40.5303 73.4322 40.72C74.1332 40.9653 74.8458 41.1134 75.5191 41.1134C75.9309 41.1134 76.3196 41.0625 76.6759 40.9607C77.2659 40.7918 77.6962 40.4378 78.0479 40.0098C78.3001 39.702 78.5176 39.3642 78.6726 38.9848C78.7559 38.7812 78.8137 38.566 78.8716 38.3555C79.4986 38.8923 80.107 39.4383 80.7086 39.9843C81.1227 40.3614 81.5253 40.7455 81.9163 41.1319C85.3058 44.4473 87.955 48.1862 88.339 53.7644C88.5889 57.3922 89.2344 62.6095 89.8545 67.6533C90.0858 69.5273 90.3172 71.4083 90.53 73.2222L90.692 74.622L90.8354 75.92C91.1732 78.9925 91.4092 81.6555 91.4092 83.3098C91.4092 85.753 90.3103 88.453 88.7555 91.3104C88.0005 92.6757 87.209 94.0204 86.3817 95.3431L85.3567 96.9881ZM13.261 30.5238C14.1865 29.714 15.3086 29.2374 17.1757 29.1263C18.6988 29.0317 20.2202 29.3355 21.5901 30.0078C21.7003 31.3466 21.8476 32.6821 22.032 34.0128C22.231 35.4681 22.4555 36.8215 22.6753 37.9691C23.1866 40.6206 23.5035 43.0939 23.8113 45.4862C24.3434 49.6369 24.8061 53.223 26.0971 56.358C26.7681 57.9845 27.129 60.518 27.5154 63.2018C27.6334 64.0301 27.7583 64.8561 27.8902 65.6751C27.2586 65.0203 26.2429 64.3448 24.9056 64.3448C24.4221 64.3448 23.9246 64.435 23.4272 64.6085C20.4333 65.6659 19.5518 68.0859 19.7253 69.997C19.7415 70.1844 19.8734 71.0451 20.0955 72.188C19.4339 71.2546 18.8841 70.2466 18.4575 69.1849C17.687 67.2623 16.7176 64.4905 15.6903 61.5545C14.6515 58.5861 13.578 55.5182 12.5924 52.9847C10.9797 48.841 9.29771 42.6519 9.20285 38.5082C9.16583 36.8794 9.36712 35.5606 9.92471 34.8156C10.3111 34.2997 10.6535 33.8092 10.9844 33.3372L11.0931 33.1845L11.4864 32.6246C11.7374 32.2629 11.9989 31.9088 12.2708 31.5626C12.5924 31.1647 12.914 30.8269 13.261 30.5238ZM24.7922 18.8121C25.0652 18.3817 25.3383 17.9259 25.6205 17.4563C27.2679 14.7053 29.1373 11.5842 32.9502 10.948C33.3851 10.8762 33.8132 10.8415 34.2389 10.8415C37.8667 10.8415 41.1104 13.3218 43.2182 15.9593C43.1048 16.5632 43.0053 17.1694 42.9105 17.7709C42.6212 19.6218 42.3182 21.5376 41.4945 23.289C40.296 25.8363 39.2271 29.8135 38.5238 33.8531C38.4567 34.2349 38.3965 34.6166 38.3364 34.9961C38.2762 35.3801 38.2207 35.7596 38.1698 36.139C37.714 39.4267 37.5312 42.5849 37.7579 44.8569C37.8898 46.1733 37.8736 48.1099 37.8574 50.3518C37.8366 53.1929 37.8112 56.2932 38.0541 59.1645C36.6705 59.4791 34.1926 60.2079 32.8206 61.5198C32.7535 61.5846 32.6679 61.6401 32.6054 61.7072C32.4988 61.8232 32.4171 61.9598 32.3654 62.1087C32.3136 62.2575 32.293 62.4154 32.3047 62.5725C32.4088 64.0347 32.6563 66.0175 32.9779 68.0882C33.2278 69.687 33.524 71.3181 33.8363 72.822C33.5378 72.7063 33.251 72.6022 32.934 72.4657C32.4851 72.2736 32.108 71.8364 31.7795 71.2417C31.532 70.7749 31.3283 70.2862 31.171 69.7818C30.969 69.1584 30.7983 68.5252 30.6597 67.8846C30.3034 66.2882 30.0419 64.5067 29.8082 62.8779C29.4033 60.0483 29.0193 57.376 28.2396 55.4811C27.0642 52.6284 26.62 49.1834 26.1087 45.1947C25.7964 42.7676 25.4748 40.2573 24.9519 37.5365C24.3844 34.5925 24.0011 31.616 23.8043 28.6243C23.522 24.0132 23.8483 20.2951 24.7922 18.8121ZM58.9094 7.60473C60.7024 7.79445 61.7204 8.18315 62.2873 8.52094C61.9981 9.34923 61.7459 10.1567 61.5238 10.9156C60.9916 12.748 60.5312 14.3305 59.4739 15.8552L59.1569 16.311L58.8538 16.7506C58.3915 17.2737 57.9772 17.8375 57.616 18.4349C57.3222 18.9254 57.0561 19.3882 56.8016 19.8347C55.7304 21.5514 54.8743 23.2381 54.5435 24.7558C54.215 25.8664 54.1201 26.7942 54.2566 27.5993C54.4486 28.7538 55.4204 29.6562 56.2024 30.2114C57.4263 31.0767 59.2819 31.8402 60.9986 31.8402C61.3017 31.8402 61.6001 31.8171 61.8893 31.7662C62.1138 31.7269 62.3151 31.6413 62.5233 31.5672C62.005 33.3719 61.5492 35.394 61.304 37.5087C61.2577 37.9066 61.2369 38.3115 61.2068 38.7141C61.1791 39.0774 61.149 39.4383 61.1351 39.8038C59.9136 42.0895 58.7669 44.4144 57.697 46.7749C56.0751 50.3402 55.9595 53.0009 55.8553 55.3516C55.772 57.2187 55.6957 58.984 54.879 61.0871C54.5876 61.812 54.2241 62.5057 53.7939 63.1578C53.5995 59.7845 53.2108 54.9212 53.1576 54.484C52.7782 53.1582 51.2489 50.6502 48.1694 50.6502C47.9959 50.6502 47.8061 50.7104 47.628 50.7266C47.2486 50.759 46.8714 50.7821 46.4735 50.8862C46.4619 50.8885 46.4503 50.8862 46.4365 50.8909C46.02 51.0019 45.666 51.1014 45.312 51.2032C41.9271 52.168 41.1798 52.8482 40.7009 55.8791C40.5829 56.6195 40.5204 57.6629 40.4857 58.8521C40.4765 59.2015 40.4695 59.5647 40.4649 59.9372C40.4252 59.5706 40.3905 59.2035 40.3608 58.8359C40.1318 55.9971 40.1526 52.913 40.1711 50.368C40.1896 48.059 40.2035 46.0646 40.06 44.6255C39.8518 42.5293 40.03 39.5517 40.4626 36.4398C40.5699 35.676 40.6894 34.9139 40.8212 34.1539C41.4899 30.3479 42.4871 26.6114 43.5883 24.2723C44.0788 23.2288 44.4028 22.1807 44.6457 21.135C44.8817 20.1239 45.0413 19.1175 45.1963 18.1272L45.3282 17.3059C45.4346 16.6557 45.5503 16.0311 45.6915 15.4295C46.0894 13.722 46.7118 12.202 48.0815 10.9318C50.9411 8.27801 52.8661 7.42427 56.0034 7.42427C56.8224 7.42427 57.7433 7.48211 58.9094 7.60473ZM28.0198 78.3771C26.3933 79.247 25.565 79.3511 24.3133 78.2591C24.1654 78.0625 24.0462 77.846 23.9593 77.6159C23.789 77.1996 23.6377 76.7757 23.5058 76.3457C23.3643 75.8968 23.2331 75.4448 23.1125 74.9899C22.592 73.051 22.1269 70.8114 22.0344 69.7911C21.9742 69.141 22.0668 67.5469 24.1999 66.7949C24.4275 66.7108 24.6677 66.6662 24.9102 66.663C25.7085 66.663 26.229 67.2484 26.4002 67.4728C26.5437 67.9193 26.9925 69.2219 28.191 72.2783C28.2419 72.4101 28.272 72.5119 28.3182 72.6369C28.4987 73.1158 28.6584 73.567 28.781 73.9649C28.936 74.4762 29.0424 74.9158 29.1141 75.3092C29.4797 77.3267 28.8249 77.9467 28.0198 78.3771ZM50.8324 68.9096C50.3188 69.9739 49.5529 70.8322 48.5511 70.8322C47.8825 70.8322 47.2856 70.816 46.7257 70.7883C46.5822 70.7813 46.4365 70.7767 46.3 70.7651C46.0246 70.7461 45.7499 70.7183 45.4763 70.6819C45.3606 70.668 45.2357 70.6564 45.1269 70.6379C44.8024 70.5858 44.4828 70.5068 44.1714 70.4019L43.9979 70.3348C43.4472 70.115 43.0817 69.805 42.9428 69.3677C42.8914 69.2219 42.864 69.0688 42.8619 68.9142L42.8549 68.0651C42.8503 67.6487 42.8457 67.1975 42.8364 66.707L42.8341 66.4756C42.7776 64.4494 42.7576 62.4223 42.7739 60.3953C42.7878 58.6856 42.8434 57.1516 42.9868 56.2377C43.2598 54.5187 43.3454 54.1832 45.312 53.6002C45.6406 53.503 46.0269 53.3942 46.4712 53.2739L47.0311 53.1235C47.2439 53.068 47.4267 53.0657 47.6257 53.0379C47.8061 53.0125 48.0005 52.9593 48.1671 52.9593C50.0365 52.9593 50.7375 54.5696 50.8995 55.0254C50.9851 56.1174 51.5543 63.4216 51.582 65.6589L51.5843 65.8371C51.5843 66.2396 51.5195 66.7348 51.4015 67.2507C51.2766 67.806 51.0869 68.3821 50.8324 68.9096ZM36.6775 74.8534C36.5706 74.4405 36.4688 74.0263 36.3721 73.6109C35.6548 70.4644 34.9214 66.0036 34.6577 62.9612C35.5137 62.3157 37.0384 61.7951 38.3271 61.4781C38.7042 63.9723 39.3729 66.1471 40.5366 67.6278C40.5436 68.1068 40.5482 68.544 40.5482 68.9165C40.5482 70.6911 41.4852 71.6952 42.7554 72.2922C43.1326 72.4703 43.5305 72.6161 43.9562 72.7248C44.2385 72.7988 44.5161 72.8752 44.8076 72.9238C44.8192 73.1089 44.8262 73.2963 44.8238 73.4976C44.81 75.1056 44.3195 77.1601 42.811 77.7616C42.0151 78.0809 41.1706 78.2475 40.3677 78.2475C39.3868 78.2475 37.6538 77.986 37.0708 76.2323L37.0222 76.0657C36.8953 75.6651 36.7803 75.2608 36.6775 74.8534ZM88.0799 38.6354C88.0917 38.6556 88.1048 38.6749 88.1192 38.6933C86.1457 38.7534 84.3063 38.7881 82.8441 38.8067C81.6969 37.7405 80.5235 36.7029 79.325 35.6948C79.2841 35.5673 79.2424 35.4401 79.2001 35.313C79.1982 35.2166 79.1943 35.1201 79.1885 35.0238C79.1815 34.9375 79.1652 34.8522 79.1399 34.7693C78.6703 33.2076 77.6592 30.6719 76.4052 28.1199C78.3024 27.0718 80.7873 25.2787 82.622 22.3867L83.4711 22.3381C85.2272 22.2409 85.8518 22.19 86.7033 21.8406C85.3961 27.206 85.6297 34.8989 88.0799 38.6354ZM76.8864 35.3084C76.8934 35.431 76.8911 35.5583 76.8934 35.6855C76.8934 36.1298 76.8656 36.5832 76.8031 37.002C76.7245 37.5434 76.5949 38.0223 76.426 38.3439C76.3127 38.5545 76.1854 38.6979 76.0396 38.7372C75.8701 38.7834 75.6948 38.8053 75.5191 38.802C74.2188 38.802 72.4743 37.8673 71.6021 36.7915C71.4642 36.6277 71.3447 36.4492 71.2458 36.2593C70.8675 35.5461 70.4646 34.8462 70.038 34.1608C68.8743 32.2243 67.0094 29.1032 66.7943 27.3471C66.7758 27.1991 66.7457 27.044 66.7526 26.9168C66.7573 26.815 66.7758 26.7155 66.7827 26.6137C66.841 25.915 66.9681 25.2237 67.1621 24.5499C67.4514 23.5481 67.8516 22.7013 68.282 22.2316C68.5133 21.9795 68.7493 21.8268 68.9807 21.8268C69.0871 21.8268 69.212 21.8545 69.3416 21.91L69.374 21.9286C69.4342 21.9563 69.5036 22.0049 69.5707 22.0466C69.6771 22.116 69.7881 22.1993 69.9061 22.3011C70.0681 22.4422 70.2416 22.6134 70.4198 22.8147C71.2573 23.7494 72.2568 25.2764 73.2378 27.044C73.614 27.7231 73.975 28.4104 74.3206 29.1055C75.3826 31.241 76.3312 33.4899 76.8864 35.3038V35.3084ZM68.9807 19.5108C68.4717 19.5108 68.0298 19.6727 67.6133 19.8949C67.1321 20.1549 66.7099 20.5118 66.3732 20.9429C65.6698 21.8314 65.1724 23.0206 64.8601 24.226C64.7114 24.8022 64.5993 25.3871 64.5246 25.9774C64.3441 26.3939 64.1428 26.8821 63.9254 27.4304C63.4881 28.0806 62.8819 28.7955 62.2017 29.1957C61.9822 29.3339 61.7403 29.4326 61.4868 29.4873C60.4132 29.677 58.7567 29.1865 57.5397 28.3258C56.8062 27.8052 56.5656 27.3772 56.5379 27.2199C56.4615 26.7664 56.5379 26.1718 56.7461 25.4499C57.0607 24.3648 57.7016 22.9628 58.6896 21.1928C58.9672 20.6977 59.2657 20.1794 59.5988 19.6242C59.9366 19.0643 60.3114 18.583 60.7047 18.1434C62.1091 16.5701 63.8027 15.7696 65.3806 15.6331C65.7786 15.5984 66.165 15.6077 66.5398 15.6562C66.9539 15.7118 67.3472 15.8159 67.7151 15.9709C67.8493 16.0264 67.9928 16.0634 68.1177 16.1305C69.3624 16.8108 69.6054 18.3355 69.5799 19.5733C69.3827 19.5331 69.182 19.5122 68.9807 19.5108Z" fill="url(#paint0_linear_287_44)"/>
<path d="M50.4413 126.777C50.328 126.79 39.1067 128.266 32.654 125.291C27.7421 123.024 25.639 123.78 23.2073 124.662C22.0019 125.097 20.7525 125.548 18.9016 125.715C18.7503 125.728 18.6032 125.772 18.4686 125.842C18.334 125.913 18.2147 126.009 18.1173 126.126C18.02 126.242 17.9466 126.377 17.9014 126.522C17.8561 126.667 17.8398 126.82 17.8535 126.971C17.8857 127.275 18.0349 127.554 18.2694 127.749C18.5039 127.945 18.8053 128.042 19.1098 128.019C20.6074 127.882 22.0798 127.544 23.4873 127.015L23.9963 126.837C26.1364 126.059 27.5871 125.56 31.4231 127.281C31.5156 127.323 31.592 127.346 31.6868 127.392C35.3054 129.062 40.09 129.477 43.9631 129.477C47.6534 129.477 50.5177 129.099 50.756 129.065C51.0596 129.023 51.3344 128.863 51.52 128.619C51.7057 128.376 51.787 128.068 51.7462 127.764C51.7279 127.613 51.6792 127.466 51.6031 127.334C51.527 127.202 51.425 127.086 51.3033 126.994C51.1815 126.902 51.0424 126.835 50.8944 126.798C50.7463 126.76 50.5922 126.753 50.4413 126.777Z" fill="url(#paint1_linear_287_44)"/>
<defs>
<linearGradient id="paint0_linear_287_44" x1="-11.5306" y1="24.3951" x2="9051.55" y2="4250.58" gradientUnits="userSpaceOnUse">
<stop stop-color="#E26A7C"/>
<stop offset="0.9998" stop-color="#35142F"/>
<stop offset="0.9999" stop-color="#35142F"/>
<stop offset="1" stop-color="#32142D"/>
</linearGradient>
<linearGradient id="paint1_linear_287_44" x1="-47.6722" y1="144.135" x2="3025.41" y2="1577.14" gradientUnits="userSpaceOnUse">
<stop stop-color="#E26A7C"/>
<stop offset="1" stop-color="#32142D"/>
</linearGradient>
</defs>
</svg>
